<svg xmlns="http://www.w3.org/2000/svg" width="124.004" height="115.62" viewBox="0 0 124.004 115.62"><defs><style>.a{fill:#fff;}</style></defs><g transform="translate(-2.01 -19.16)"><path class="a" d="M289.216,25.6a57.815,57.815,0,0,1,16.961-6.437q0,42.74,0,85.479a42.577,42.577,0,0,0-14.977,5.2,70.627,70.627,0,0,0-16.971,13.27,34.474,34.474,0,0,0-5.109,6.755q.015-43.246,0-86.489C274.154,35.846,281.353,29.977,289.216,25.6Z" transform="translate(-201.903)"/><path class="a" d="M91.057,19.19a53.465,53.465,0,0,1,13.278,4.524c9.333,4.511,17.916,11.015,23.772,19.661q.018,43.238.007,86.477a36.465,36.465,0,0,0-5.107-6.711,71.2,71.2,0,0,0-15.582-12.484,43.551,43.551,0,0,0-16.368-5.986Q91.057,61.93,91.057,19.19Z" transform="translate(-67.308 -0.023)"/><path class="a" d="M2.01,49.57c4.262.652,8.559,1.028,12.846,1.479q.007,42.726,0,85.454c6.8-.142,13.348,2.256,19.315,5.319a74.864,74.864,0,0,1,20.2,15.443,89.387,89.387,0,0,0-13.908-5.629,143.086,143.086,0,0,0-38.459-6.23Z" transform="translate(0 -22.986)"/><path class="a" d="M334.955,52.536c4.272-.417,8.544-.911,12.841-1q0,47.926,0,95.851a127.513,127.513,0,0,0-33.908,4.748,99.085,99.085,0,0,0-18.468,7.116A71.531,71.531,0,0,1,313.573,144.6c6.528-3.659,13.761-6.723,21.375-6.6Q334.959,95.263,334.955,52.536Z" transform="translate(-221.783 -24.475)"/></g></svg>