<svg xmlns="http://www.w3.org/2000/svg" width="60.654" height="42.197" viewBox="0 0 60.654 42.197"><defs><style>.a,.aa,.ab,.ac,.ad,.ae,.af,.ag,.ah,.ai,.b,.c,.d,.e,.f,.g,.h,.i,.j,.k,.l,.m,.n,.o,.p,.q,.r,.s,.t,.u,.v,.w,.x,.y,.z{fill:#6b7477;}.a{opacity:0.33;}.c{opacity:0.49;}.d{opacity:0.42;}.e{opacity:0.4;}.f{opacity:0.39;}.g{opacity:0.45;}.h{opacity:0.44;}.i{opacity:0.41;}.j{opacity:0.43;}.k{opacity:0.51;}.l{opacity:0.46;}.m{opacity:0.47;}.n{opacity:0.38;}.o{opacity:0.37;}.p{opacity:0.48;}.q{opacity:0.75;}.r{opacity:0.56;}.s{opacity:0.54;}.t{opacity:0.6;}.u{opacity:0.35;}.v{opacity:0.61;}.w{opacity:0.13;}.x{opacity:0.67;}.y{opacity:0.74;}.z{opacity:0.57;}.aa{opacity:0.58;}.ab{opacity:0.69;}.ac{opacity:0.36;}.ad{opacity:0.53;}.ae{opacity:0.55;}.af{opacity:0.62;}.ag{opacity:0.76;}.ah{opacity:0.72;}.ai{opacity:0.52;}</style></defs><g transform="translate(0.001 -0.001)"><g transform="translate(30.056 0.001)"><path class="a" d="M495.44,221.183a.446.446,0,0,1,.628-.126c.161.106.4.154.494.327-.259-.11-.5-.261-.753-.38A2.31,2.31,0,0,1,495.44,221.183Z" transform="translate(-495.44 -220.977)"/></g><g transform="translate(0.06 0.027)"><path class="b" d="M74,221.549a2.313,2.313,0,0,0,.368-.179c.255.119.494.27.753.38h0c.448.261.913.495,1.377.725l.018.007c.413.23.829.462,1.261.655l.029.013.024.03h.04l.024.013c.446.273.917.507,1.386.738l0,0q1.308.712,2.641,1.382l.016.009c.949.53,1.926,1.01,2.884,1.526l.034-.013a12.13,12.13,0,0,0,1.236.667l.008,0c.454.255.915.5,1.385.724l.008,0c.414.231.829.466,1.263.656l.028.011.023.031h.04l.023.013c.738.439,1.52.8,2.275,1.215.63.319,1.245.671,1.882.973l.026.012c.825.47,1.681.884,2.516,1.336.5.245.98.53,1.485.763l.048.022c.419.253.864.462,1.3.7.486.243.956.519,1.449.749l.008,0q.672.376,1.365.718l.044.019c.913.5,1.833.985,2.764,1.446l.028.012.066.029.017.009c.121.118.294.154.421.265-.794.471-1.647.847-2.444,1.315l-.021.013a10.834,10.834,0,0,0-1.13.6l-.016.01h-.039l-.023.032-.03.013c-.469.215-.929.46-1.374.719l-.05.022c-.693.33-1.364.712-2.049,1.06-1.157.614-2.326,1.206-3.477,1.831l-.014.007q-.7.34-1.383.729l0,0c-.932.464-1.854.954-2.77,1.448h0c-.469.229-.933.47-1.388.727l0,0c-.471.22-.93.468-1.38.725l-.011.006c-1.349.686-2.69,1.392-4.024,2.106l-.019.01c-.921.473-1.846.944-2.751,1.446l-.024.012c-1.129.562-2.235,1.17-3.358,1.745a6.724,6.724,0,0,0-.672.374l-.017.011-.067.029-.026.012c-.487.216-.946.493-1.424.73-.085.044-.187.118-.284.058-.417-.218-.829-.448-1.255-.651l-.02-.01c-.458-.252-.918-.505-1.392-.723l-.028-.012-.065-.03-.022-.011a14.852,14.852,0,0,0-1.408-.741l-.025-.011-.024-.028h-.038l-.019-.012c-.408-.249-.841-.462-1.269-.674l0,0c-.5-.275-1-.54-1.51-.791l-.005,0c-.917-.494-1.84-.98-2.77-1.449l-.013-.007q-1.37-.748-2.768-1.446l-.02-.011c-.713-.4-1.451-.763-2.173-1.151-.238-.118-.466-.259-.712-.358l-.014-.007c-1.123-.616-2.27-1.19-3.4-1.791-.3-.15-.587-.325-.895-.458h0c-.458-.255-.92-.513-1.4-.726l-.03-.012-.024-.032h-.04l-.019-.011c-.448-.27-.92-.5-1.39-.737l-.015-.007c-.626-.359-1.276-.674-1.912-1.015-.293-.142-.568-.321-.872-.439l-.029-.013-.063-.029-.022-.011c-.606-.372-1.261-.662-1.883-1.008-.344-.171-.675-.37-1.026-.525h0c-.463-.251-.923-.511-1.4-.728l-.024-.011-.067-.031-.061,0c0-.029,0-.087,0-.116.89-.462,1.786-.915,2.664-1.4l.013-.007c2.293-1.173,4.565-2.388,6.852-3.571a1.1,1.1,0,0,0,.222-.145l.022-.007.066-.032.028-.012a3.666,3.666,0,0,0,.522-.255c.753-.4,1.513-.786,2.264-1.188l.007-.029a4.873,4.873,0,0,0,.722-.35,4.629,4.629,0,0,0,.63-.353l.057-.027a.451.451,0,0,0,.182-.069c.433-.245.889-.45,1.314-.708h0q1.337-.663,2.649-1.384h0c.556-.266,1.1-.557,1.642-.854l.021-.011c.419-.205.836-.419,1.241-.653h0c.561-.261,1.1-.568,1.65-.856l.022-.011c.632-.315,1.251-.655,1.88-.975.249-.144.519-.252.755-.418l.02-.011.064-.032.03-.013c.836-.4,1.645-.854,2.471-1.274.566-.313,1.157-.582,1.71-.918l.023-.014h.04l.022-.033Z" transform="translate(-44 -221.37)"/><path class="b" d="M44.535,505.8a2.156,2.156,0,0,0,.363.153l.032.01.024.032.043,0,.058.029.062.044.069.024.062.043.07.027.058.042.025.011c.134.119.31.169.452.276,0,1.575-.011,3.152.007,4.727a3.652,3.652,0,0,1,1.136.473,5.768,5.768,0,0,0,.471.337l.03.018a.19.19,0,0,0,.138.125l.01.057a.348.348,0,0,0,.255.288v.038a.141.141,0,0,0,.121.157l.009.016c.1.179.165.372.278.542l-.007.029.063.126v.071c.014.033.042.1.056.132l0,.031a3.993,3.993,0,0,1-.065,1.839l-.006.022c-.106.046-.121.185-.126.286l0,.066-.039.02,0,.045-.032.065-.04.064-.008.024c-.139.148-.221.338-.363.483-.163.2-.364.361-.541.548l-.012.008a1.832,1.832,0,0,0-.392.254l-.015,0-.146.079a1.615,1.615,0,0,0,.2.507l0,.026.056.13.006.033c.088.38.206.757.327,1.128h0a2.219,2.219,0,0,0,.134.528v.007a23.794,23.794,0,0,1,.547,3.587,9.254,9.254,0,0,1,.062,1.32,7.545,7.545,0,0,1,0,.993,6.12,6.12,0,0,1-.067,1.255c-1.813,0-3.627,0-5.44,0a3.529,3.529,0,0,1-.052-.864,12.713,12.713,0,0,1,0-1.717,23.283,23.283,0,0,1,.4-3.7l0-.017.05-.12c.066-.432.21-.846.282-1.276h0a4.978,4.978,0,0,0,.2-.733l.006-.029.054-.133,0-.064.065-.13v-.06c.11-.067.129-.225.136-.342v-.063l.063-.133.021-.062c.122-.026.013-.188-.073-.143l-.036,0a4.853,4.853,0,0,1-1.222-1.167l-.007-.009c-.095-.175-.173-.357-.272-.529l0-.03-.057-.129-.005-.028a3.317,3.317,0,0,1-.137-.958,3.372,3.372,0,0,1,.794-2.277l.06-.064a6.54,6.54,0,0,1,.91-.7l.033-.011.056-.048.073,0c.094-.013.248-.021.276-.13h.021a1.108,1.108,0,0,0,.409-.1C44.551,509.409,44.51,507.6,44.535,505.8Z" transform="translate(-41.876 -486.989)"/><path class="b" d="M268.433,583.832l.015-.012c.029,3.685,0,7.371.013,11.057a4.117,4.117,0,0,1-.81,2.571,5.022,5.022,0,0,1-1.019.994l-.007,0a.722.722,0,0,0-.3.184l-.012.007c-.4.178-.8.355-1.2.527h0a37.993,37.993,0,0,1-11.922,2.741c-.526.085-1.06.014-1.588.074a19.445,19.445,0,0,1-2.116-.025c-.884.007-1.764-.086-2.641-.165a39.458,39.458,0,0,1-8.152-1.761l-.012,0c-.663-.238-1.323-.483-1.983-.728h0c-.481-.214-.977-.394-1.446-.634a4.2,4.2,0,0,1-2.233-3.654q0-5.574,0-11.148c.253.11.483.266.741.368l.022.013c.952.522,1.92,1.022,2.888,1.515l.008,0c.5.277,1,.549,1.514.788l.01,0c1.077.593,2.178,1.143,3.264,1.72.262.126.507.286.779.39l.03.013.024.032.041,0,.02.014a15.5,15.5,0,0,0,1.384.734l.018.009c.457.25.915.5,1.388.72l.03.013.024.033.041,0,.03.012a15,15,0,0,0,1.389.739h0c.818.459,1.661.874,2.488,1.316a1.934,1.934,0,0,0,.3.137l.03.013.023.032h.04l.025.012c.329.232.709.381,1.058.582a.2.2,0,0,0,.276-.036l0-.018c.48-.194.93-.471,1.391-.71l.006,0c.884-.461,1.782-.9,2.644-1.4l.018-.013h.04l.023-.029.03-.013c.968-.465,1.906-1,2.865-1.482.392-.213.8-.4,1.18-.634l.013-.007c.466-.221.921-.47,1.374-.716l.021-.01c.97-.491,1.93-1,2.89-1.511l.018-.009c.419-.209.839-.421,1.245-.658h0c.426-.212.858-.421,1.262-.674l.026-.012h.038l.023-.03.026-.01c.431-.2.851-.421,1.261-.658l.025-.011A10.092,10.092,0,0,0,268.433,583.832Z" transform="translate(-220.372 -559.85)"/></g><g transform="translate(8.998 0.207)"><path class="c" d="M494.065,224.09l.047.012-.022.033h-.04Z" transform="translate(-473.084 -224.09)"/><path class="c" d="M429.056,258.1l.048.015-.064.032Z" transform="translate(-412.373 -255.851)"/><path class="c" d="M192.008,382.09l.048.015-.066.032Z" transform="translate(-191.001 -371.641)"/><path class="c" d="M177.03,531.231h.04l.024.032-.047.014Z" transform="translate(-177.03 -510.917)"/></g><g transform="translate(17.703 0.265)"><path class="d" d="M434.56,224.981h.092c-.553.336-1.144.605-1.71.918-.827.419-1.636.876-2.472,1.274l.013-.067C431.85,226.41,433.2,225.686,434.56,224.981Z" transform="translate(-422.414 -224.98)"/><path class="d" d="M308.661,599.96q1.395.7,2.768,1.446l-.083.013c-.837-.427-1.657-.882-2.5-1.3C308.787,600.069,308.629,600.069,308.661,599.96Z" transform="translate(-308.657 -575.161)"/></g><g transform="translate(26.153 0.395)"><path class="e" d="M512.41,226.953l.083-.013c.427.233.869.437,1.29.68l0,.058C513.323,227.447,512.858,227.213,512.41,226.953Z" transform="translate(-507.384 -226.94)"/><path class="e" d="M659.64,304.022l.072,0c.383.208.778.393,1.161.6l0,.069A12.137,12.137,0,0,1,659.64,304.022Z" transform="translate(-644.877 -298.922)"/><path class="e" d="M436.42,666.83a14.882,14.882,0,0,1,1.408.741h-.091c-.429-.226-.864-.443-1.294-.665Z" transform="translate(-436.42 -637.738)"/></g><g transform="translate(32.574 1.129)"><path class="f" d="M533.5,238.051l.085-.011c.382.2.771.392,1.153.595l.023.071C534.329,238.512,533.913,238.281,533.5,238.051Z" transform="translate(-533.5 -238.04)"/></g><g transform="translate(33.863 1.793)"><path class="c" d="M553,248.095l.046-.015.017.044h-.04Z" transform="translate(-553 -248.08)"/></g><g transform="translate(23.264 1.85)"><path class="f" d="M554.33,248.94a10.19,10.19,0,0,1,1.372.677l.015.061C555.247,249.447,554.776,249.213,554.33,248.94Z" transform="translate(-543.643 -248.94)"/><path class="f" d="M392.73,643.88c.509.251,1.013.516,1.51.791l-.081.013c-.468-.25-.949-.475-1.409-.74Z" transform="translate(-392.73 -617.761)"/></g><g transform="translate(9.092 2.514)"><path class="g" d="M391.107,258.983l.091,0c-.236.166-.506.274-.755.418-.629.32-1.248.66-1.88.975l-.023-.061C389.405,259.887,390.248,259.419,391.107,258.983Z" transform="translate(-374.646 -258.98)"/><path class="g" d="M178.45,531.89c.479.213.941.471,1.4.726l-.087.01c-.425-.235-.864-.443-1.293-.67Z" transform="translate(-178.45 -513.841)"/><path class="g" d="M374.31,657.95l.089,0c.43.227.865.444,1.3.668v.063A15.553,15.553,0,0,1,374.31,657.95Z" transform="translate(-361.357 -631.564)"/><path class="g" d="M459.44,678.83c.474.218.934.471,1.392.723l-.073.017q-.647-.34-1.3-.669Z" transform="translate(-440.857 -651.064)"/></g><g transform="translate(35.341 2.583)"><path class="f" d="M575.35,260.037l.094-.007c.778.394,1.539.819,2.32,1.207.071.063.21.076.228.182Q576.66,260.752,575.35,260.037Z" transform="translate(-575.35 -260.03)"/></g><g transform="translate(21.337 3.901)"><path class="h" d="M363.622,280.77c.5-.29,1.034-.53,1.544-.81l.084.017c-.548.288-1.089.6-1.65.856Z" transform="translate(-363.6 -279.96)"/><path class="h" d="M527.055,691.008c.092-.039.171-.126.28-.1-.862.5-1.76.94-2.644,1.4v-.069C525.486,691.841,526.262,691.409,527.055,691.008Z" transform="translate(-514.036 -663.723)"/></g><g transform="translate(37.999 3.969)"><path class="i" d="M615.53,280.993l.079-.013q1.4.729,2.8,1.468v.071C617.456,282,616.479,281.522,615.53,280.993Z" transform="translate(-615.53 -280.98)"/></g><g transform="translate(20.078 4.764)"><path class="d" d="M345.551,293.1c.089-.032.163-.133.268-.089-.4.234-.821.448-1.241.653l-.018-.06C344.891,293.435,345.219,293.263,345.551,293.1Z" transform="translate(-344.56 -292.997)"/></g><g transform="translate(18.433 5.424)"><path class="d" d="M319.922,303.683c.428-.26.889-.46,1.328-.7l.082.015c-.54.3-1.086.588-1.642.854C319.7,303.735,319.847,303.74,319.922,303.683Z" transform="translate(-319.69 -302.98)"/></g><g transform="translate(0.131 6.151)"><path class="h" d="M678.45,313.985l.079-.015c.43.228.865.448,1.3.67l.007.069C679.365,314.485,678.9,314.24,678.45,313.985Z" transform="translate(-636.421 -313.97)"/><path class="h" d="M45.629,439l.077.013c-.878.485-1.774.938-2.664,1.4,0,.029,0,.087,0,.116l-.079-.009c0-.032,0-.1,0-.129C43.851,439.931,44.737,439.459,45.629,439Z" transform="translate(-42.96 -430.731)"/></g><g transform="translate(14.803 6.286)"><path class="j" d="M282.165,316.01l.084.009q-1.309.719-2.649,1.384c.046-.115.187-.141.28-.208C280.651,316.818,281.4,316.4,282.165,316.01Z" transform="translate(-278.621 -316.01)"/><path class="j" d="M264.8,576.99c.247.1.474.239.712.358.722.388,1.46.747,2.173,1.151l-.073.017c-.88-.454-1.749-.926-2.634-1.369C264.916,577.1,264.811,577.08,264.8,576.99Z" transform="translate(-264.8 -559.73)"/></g><g transform="translate(43.553 6.881)"><path class="d" d="M699.51,325.023l.078-.013c.382.207.776.391,1.158.6l.027.07C700.339,325.488,699.924,325.253,699.51,325.023Z" transform="translate(-699.51 -325.01)"/></g><g transform="translate(24.865 7.547)"><path class="k" d="M719.03,335.094l.046-.014.017.044h-.04Z" transform="translate(-699.052 -335.08)"/><path class="k" d="M416.95,680.065l.046-.015.019.046-.041,0Z" transform="translate(-416.95 -657.236)"/><path class="k" d="M525.98,687.239l.067-.029-.019.046Z" transform="translate(-518.769 -663.922)"/><path class="k" d="M564.987,690.1l.046.015-.023.029h-.04Z" transform="translate(-555.181 -666.621)"/><path class="k" d="M482.01,714.084l.046-.014.017.045h-.04Z" transform="translate(-477.707 -689.006)"/></g><g transform="translate(44.93 7.604)"><path class="e" d="M720.34,335.94l.092,0c.423.232.867.425,1.28.675.471.249.957.473,1.418.743.45.24.919.449,1.357.712l.01.055c-.637-.3-1.252-.654-1.882-.974C721.861,336.744,721.078,336.379,720.34,335.94Z" transform="translate(-720.34 -335.94)"/><path class="e" d="M799.957,503.14c.685-.348,1.356-.73,2.049-1.06l.006.039c-.512.329-1.09.544-1.607.864-1.292.65-2.558,1.348-3.846,2l-.079-.017C797.631,504.346,798.8,503.754,799.957,503.14Z" transform="translate(-791.445 -491.092)"/></g><g transform="translate(14.242 7.675)"><path class="h" d="M257.771,337.02l.086,0c-.425.259-.881.463-1.314.708a.453.453,0,0,1-.182.069l-.041-.016C256.787,337.5,257.293,337.285,257.771,337.02Z" transform="translate(-256.32 -337.02)"/></g><g transform="translate(12.874 8.452)"><path class="h" d="M236.988,348.77l0,.032a4.634,4.634,0,0,1-.63.353,4.878,4.878,0,0,1-.722.35l.012-.04C236.088,349.216,236.54,349,236.988,348.77Z" transform="translate(-235.64 -348.77)"/></g><g transform="translate(10.081 9.193)"><path class="l" d="M196.118,359.97l.079.022c-.751.4-1.511.79-2.264,1.188a3.667,3.667,0,0,1-.522.255l.081-.09C194.364,360.883,195.242,360.429,196.118,359.97Z" transform="translate(-193.41 -359.97)"/></g><g transform="translate(49.113 9.791)"><path class="d" d="M783.59,369.023l.073-.013c1.32.684,2.633,1.38,3.95,2.066l-.023.046c-.505-.233-.985-.518-1.485-.763C785.271,369.907,784.415,369.493,783.59,369.023Z" transform="translate(-783.59 -369.01)"/></g><g transform="translate(2.891 10.71)"><path class="d" d="M91.673,382.918l.091-.008a1.1,1.1,0,0,1-.222.145c-2.288,1.182-4.559,2.4-6.852,3.571l.014-.056c.507-.3,1.048-.54,1.567-.821.362-.22.755-.386,1.124-.593.22-.148.468-.245.7-.371C89.289,384.165,90.476,383.533,91.673,382.918Z" transform="translate(-84.69 -382.91)"/></g><g transform="translate(53.162 11.904)"><path class="d" d="M844.81,400.981l.04-.021c.909.448,1.8.94,2.7,1.4l0,.065c-.493-.229-.963-.506-1.449-.749C845.674,401.444,845.229,401.234,844.81,400.981Z" transform="translate(-844.81 -400.96)"/></g><g transform="translate(55.915 13.361)"><path class="i" d="M886.43,423l.087-.012c.418.237.866.419,1.274.675l0,.054Q887.1,423.379,886.43,423Z" transform="translate(-886.43 -422.99)"/></g><g transform="translate(10.493 14.087)"><path class="i" d="M907.73,433.992l.065-.023c.9.46,1.78.946,2.68,1.395l.019.073C909.563,434.978,908.643,434.488,907.73,433.992Z" transform="translate(-860.899 -433.97)"/><path class="i" d="M199.63,542.88c.308.133.6.308.895.458,1.132.6,2.278,1.175,3.4,1.791l-.087.008c-.852-.433-1.688-.895-2.543-1.321-.534-.318-1.112-.554-1.644-.874Z" transform="translate(-199.63 -535.677)"/></g><g transform="translate(60.115 15.55)"><path class="c" d="M949.94,456.107l.048-.017.018.046Z" transform="translate(-949.94 -456.09)"/></g><g transform="translate(16.363 15.605)"><path class="m" d="M922.614,456.93a1.065,1.065,0,0,1,.451.206c0,.032,0,.1,0,.13-.747.373-1.475.779-2.22,1.156-.087.028-.161.133-.259.087.8-.468,1.65-.844,2.444-1.315C922.908,457.084,922.735,457.048,922.614,456.93Z" transform="translate(-878.779 -456.93)"/><path class="m" d="M288.39,613l.083-.013c.47.251.947.488,1.415.741l.017.061C289.389,613.552,288.887,613.28,288.39,613Z" transform="translate(-288.39 -602.669)"/></g><g transform="translate(0.271 15.953)"><path class="j" d="M45.07,462.19l.067.031-.048.016Z" transform="translate(-45.07 -462.19)"/></g><g transform="translate(0.362 15.996)"><path class="e" d="M46.45,462.83c.479.217.94.478,1.4.728l-.086.012c-.423-.233-.87-.424-1.283-.675Z" transform="translate(-46.45 -462.83)"/></g><g transform="translate(1.767 16.725)"><path class="d" d="M67.69,473.86c.352.155.683.354,1.026.525.622.346,1.277.635,1.883,1.008l-.092,0c-.419-.23-.859-.421-1.268-.668-.509-.265-1.026-.514-1.526-.8Z" transform="translate(-67.69 -473.86)"/></g><g transform="translate(57.024 17.198)"><path class="n" d="M903.2,481.608a10.826,10.826,0,0,1,1.129-.6v.061c-.337.185-.685.348-1.024.529Z" transform="translate(-903.2 -481.01)"/></g><g transform="translate(45.643 17.806)"><path class="g" d="M902.043,490.2h.039l-.017.046-.046-.013Z" transform="translate(-890.717 -490.2)"/><path class="g" d="M731.126,603.09l.046.013-.023.03h-.038Z" transform="translate(-731.11 -595.624)"/></g><g transform="translate(55.541 17.851)"><path class="o" d="M880.78,491.6c.445-.259.906-.5,1.374-.719-.032.088-.128.115-.2.163-.374.194-.751.385-1.128.573Z" transform="translate(-880.78 -490.88)"/></g><g transform="translate(4.698 18.269)"><path class="p" d="M112.01,497.21l.063.029-.046.016Z" transform="translate(-112.01 -497.21)"/></g><g transform="translate(4.791 18.311)"><path class="g" d="M113.41,497.84c.3.118.579.3.872.439.636.341,1.286.656,1.912,1.015l-.078.01c-.366-.2-.751-.37-1.11-.586-.518-.276-1.054-.52-1.56-.815Z" transform="translate(-113.41 -497.84)"/></g><g transform="translate(2.291 18.782)"><path class="q" d="M75.966,504.97a.732.732,0,0,1,.435.208,2.151,2.151,0,0,1-.363-.153c-.024,1.8.017,3.609-.019,5.412a1.107,1.107,0,0,1-.409.1,1.092,1.092,0,0,1,.356-.119Q75.967,507.691,75.966,504.97Z" transform="translate(-75.61 -504.97)"/></g><g transform="translate(3.114 18.984)"><path class="r" d="M88.06,508.036l.047-.016.02.044-.043,0Z" transform="translate(-88.06 -508.02)"/></g><g transform="translate(3.239 19.05)"><path class="s" d="M89.95,509.017l.05-.007.013.051Z" transform="translate(-89.95 -509.01)"/></g><g transform="translate(3.37 19.118)"><path class="c" d="M91.93,510.057l.049-.007.013.05Z" transform="translate(-91.93 -510.05)"/></g><g transform="translate(3.502 19.188)"><path class="j" d="M93.93,511.107l.047-.007.011.048Z" transform="translate(-93.93 -511.1)"/></g><g transform="translate(3.585 19.247)"><path class="t" d="M95.18,512a1.344,1.344,0,0,1,.517.267q0,2.352,0,4.7a3.023,3.023,0,0,1,1.548.842,5.723,5.723,0,0,1-.471-.337A3.652,3.652,0,0,0,95.639,517c-.019-1.575,0-3.152-.007-4.727C95.49,512.169,95.314,512.119,95.18,512Z" transform="translate(-95.18 -512)"/></g><g transform="translate(7.589 19.772)"><path class="n" d="M155.73,519.93c.47.232.941.467,1.39.737l-.1-.005c-.421-.233-.867-.422-1.278-.674Z" transform="translate(-155.73 -519.93)"/></g><g transform="translate(48.569 21.489)"><path class="d" d="M775.36,546.629q.679-.387,1.383-.729l.005.067c-.433.218-.864.442-1.295.663Z" transform="translate(-775.36 -545.9)"/></g><g transform="translate(45.794 22.222)"><path class="n" d="M733.4,558.428c.917-.494,1.839-.985,2.77-1.448-.034.116-.181.14-.269.206-.739.358-1.448.768-2.185,1.131C733.612,558.358,733.522,558.464,733.4,558.428Z" transform="translate(-733.4 -556.98)"/></g><g transform="translate(44.406 23.67)"><path class="e" d="M712.41,579.607c.454-.257.919-.5,1.388-.727l-.01.069c-.427.226-.86.44-1.288.665Z" transform="translate(-712.41 -578.88)"/></g><g transform="translate(12.631 24.01)"><path class="u" d="M231.973,584.018a1.728,1.728,0,0,1,.794.343l.013.054c-.258-.1-.489-.258-.741-.368q-.009,5.574,0,11.148a4.2,4.2,0,0,0,2.233,3.654c.469.239.966.42,1.446.633-.122.053-.229-.043-.338-.083a6.442,6.442,0,0,1-1.872-.995,1.754,1.754,0,0,1-.52-.517,4.228,4.228,0,0,1-.948-2.027c.024-.251-.088-.483-.069-.733C231.973,591.425,231.966,587.721,231.973,584.018Z" transform="translate(-231.966 -584.018)"/></g><g transform="translate(47.016 24.009)"><path class="a" d="M751.877,584.536a6.478,6.478,0,0,1,1.1-.536,10.079,10.079,0,0,1-1.105.6Z" transform="translate(-751.87 -584)"/></g><g transform="translate(46.319 23.997)"><path class="g" d="M743.157,583.82l.077.019q.007,5.55,0,11.1a4.245,4.245,0,0,1-1.8,3.485l-.094.017a5.02,5.02,0,0,0,1.019-.994,4.118,4.118,0,0,0,.81-2.571C743.161,591.191,743.186,587.505,743.157,583.82Z" transform="translate(-741.34 -583.82)"/></g><g transform="translate(1.993 24.342)"><path class="v" d="M71.107,589.167c-.007-.108.192-.149.276-.13C71.355,589.146,71.2,589.154,71.107,589.167Z" transform="translate(-71.107 -589.032)"/></g><g transform="translate(13.467 24.405)"><path class="e" d="M244.6,590l.077-.015c.865.442,1.718.907,2.585,1.346.063.071.237.069.225.184C246.52,591.026,245.552,590.527,244.6,590Z" transform="translate(-244.6 -589.99)"/><path class="e" d="M311.44,625.068l.087-.008c1.316.674,2.618,1.378,3.934,2.051l.022.067c-.272-.1-.517-.264-.779-.39C313.618,626.211,312.517,625.661,311.44,625.068Z" transform="translate(-307.02 -622.741)"/></g><g transform="translate(43.021 24.399)"><path class="g" d="M691.47,590.626c.45-.258.909-.506,1.38-.726l-.024.06c-.411.253-.856.439-1.276.676Z" transform="translate(-691.47 -589.9)"/></g><g transform="translate(1.864 24.477)"><path class="g" d="M69.17,591.08l.046,0-.056.048Z" transform="translate(-69.16 -591.08)"/></g><g transform="translate(0.921 24.538)"><path class="m" d="M55.075,592.464A2.241,2.241,0,0,1,55.81,592a6.541,6.541,0,0,0-.91.7A.49.49,0,0,1,55.075,592.464Z" transform="translate(-54.9 -592)"/></g><g transform="translate(45.73 24.604)"><path class="i" d="M733.613,593l.078.012c-.41.237-.829.463-1.26.658l.024-.07C732.839,593.4,733.229,593.205,733.613,593Z" transform="translate(-732.43 -593)"/></g><g transform="translate(5.681 25.07)"><path class="w" d="M126.87,600.05c.112-.031.158.011.138.125A.189.189,0,0,1,126.87,600.05Z" transform="translate(-126.87 -600.041)"/></g><g transform="translate(36.215 25.131)"><path class="n" d="M630.45,603.066c1.335-.714,2.675-1.42,4.024-2.106l-.008.053c-.505.306-1.058.529-1.561.837-.8.393-1.576.832-2.372,1.233Z" transform="translate(-627.68 -600.96)"/><path class="n" d="M588.56,634.4c.905-.5,1.83-.974,2.751-1.446l.013.062c-.508.269-1.025.522-1.534.786-.37.231-.774.4-1.155.612Z" transform="translate(-588.56 -630.834)"/></g><g transform="translate(5.829 25.262)"><path class="x" d="M129.11,602.95c.106,0,.246.179.255.288A.348.348,0,0,1,129.11,602.95Z" transform="translate(-129.11 -602.95)"/></g><g transform="translate(-0.001 25.304)"><path class="p" d="M41.592,603.82c.063-.091.123-.2.232-.239a3.373,3.373,0,0,0-.794,2.277,3.316,3.316,0,0,0,.137.958c-.124,0-.045-.161-.1-.227A3.358,3.358,0,0,1,41.592,603.82Z" transform="translate(-40.963 -603.58)"/></g><g transform="translate(44.355 25.323)"><path class="e" d="M712.62,603.982c.093-.037.171-.13.282-.1-.4.253-.836.462-1.262.674.015-.1.122-.114.187-.162C712.088,604.248,712.356,604.118,712.62,603.982Z" transform="translate(-711.64 -603.873)"/></g><g transform="translate(6.085 25.574)"><path class="y" d="M132.977,607.674l.043-.014.078.171A.141.141,0,0,1,132.977,607.674Z" transform="translate(-132.977 -607.66)"/></g><g transform="translate(6.214 25.761)"><path class="n" d="M134.94,610.49a.8.8,0,0,1,.278.542C135.105,610.862,135.037,610.669,134.94,610.49Z" transform="translate(-134.94 -610.49)"/></g><g transform="translate(43.094 25.992)"><path class="m" d="M693.751,613.99l.089.009c-.405.237-.825.449-1.245.658l-.015-.063C692.974,614.4,693.366,614.2,693.751,613.99Z" transform="translate(-692.58 -613.99)"/></g><g transform="translate(6.486 26.332)"><path class="t" d="M139.05,619.12l.053.009.011.117Z" transform="translate(-139.05 -619.12)"/></g><g transform="translate(6.55 26.529)"><path class="z" d="M140.01,622.11l.051,0,.005.129C140.052,622.209,140.024,622.143,140.01,622.11Z" transform="translate(-140.01 -622.11)"/></g><g transform="translate(20.488 26.518)"><path class="f" d="M350.76,621.93c.93.469,1.853.955,2.77,1.449l-.091.011c-.892-.463-1.782-.926-2.667-1.4Z" transform="translate(-350.76 -621.93)"/></g><g transform="translate(40.186 26.652)"><path class="h" d="M648.61,625.426c.949-.474,1.88-.982,2.823-1.466l.081.017c-.96.51-1.92,1.02-2.89,1.511Z" transform="translate(-648.61 -623.96)"/></g><g transform="translate(6.545 26.693)"><path class="d" d="M140,624.58c.11.07.057.218.09.325a2.9,2.9,0,0,1-.056,1.286c-.045.069.013.226-.1.229A3.993,3.993,0,0,0,140,624.58Z" transform="translate(-139.93 -624.58)"/></g><g transform="translate(38.806 28.172)"><path class="n" d="M627.755,647.628c.408-.257.859-.439,1.278-.678l.081.018c-.454.247-.908.5-1.374.716Z" transform="translate(-627.74 -646.95)"/></g><g transform="translate(0.18 28.567)"><path class="aa" d="M43.729,652.92l.057.129-.086-.074Z" transform="translate(-43.7 -652.92)"/></g><g transform="translate(6.413 28.554)"><path class="ab" d="M137.94,653.006c0-.1.02-.241.126-.286C138.091,652.8,138.039,653.008,137.94,653.006Z" transform="translate(-137.94 -652.72)"/></g><g transform="translate(32.16 28.705)"><path class="n" d="M527.922,656.745c1.123-.575,2.229-1.184,3.358-1.745l-.012.054c-.487.295-1.02.51-1.506.808-.812.4-1.6.844-2.41,1.251l-.1.007A6.72,6.72,0,0,1,527.922,656.745Z" transform="translate(-527.25 -655)"/></g><g transform="translate(0.264 28.726)"><path class="u" d="M44.97,655.32c.1.172.177.354.272.529A.686.686,0,0,1,44.97,655.32Z" transform="translate(-44.97 -655.32)"/></g><g transform="translate(24.777 28.762)"><path class="ac" d="M415.62,655.87c.429.212.861.425,1.269.674-.112.02-.2-.062-.29-.1-.321-.169-.653-.317-.962-.509Z" transform="translate(-415.62 -655.87)"/></g><g transform="translate(21.96 28.84)"><path class="ad" d="M373.02,657.065l.047-.015.018.045-.041,0Z" transform="translate(-373.02 -657.05)"/></g><g transform="translate(6.371 28.906)"><path class="v" d="M137.3,658.071l.039-.021.009.049-.046.017Z" transform="translate(-137.3 -658.05)"/></g><g transform="translate(26.351 28.903)"><path class="j" d="M570.346,658l.079.01c-.384.229-.788.421-1.18.634-.959.487-1.9,1.017-2.865,1.482.013-.1.13-.119.2-.165C567.846,659.324,569.086,658.644,570.346,658Z" transform="translate(-557.983 -658)"/><path class="j" d="M439.41,692l.085-.009c.836.429,1.66.881,2.5,1.3.071.045.189.058.2.163a1.926,1.926,0,0,1-.3-.137C441.071,692.872,440.228,692.458,439.41,692Z" transform="translate(-439.41 -689.742)"/></g><g transform="translate(6.301 29.037)"><path class="t" d="M136.25,660.083l.04-.063.009.048Z" transform="translate(-136.25 -660.02)"/></g><g transform="translate(5.389 29.124)"><path class="ae" d="M123,661.824c.142-.145.224-.336.363-.483a2.589,2.589,0,0,1-.827,1.015l-.077.016C122.637,662.185,122.838,662.023,123,661.824Z" transform="translate(-122.46 -661.34)"/></g><g transform="translate(0.543 29.263)"><path class="v" d="M49.18,663.45a4.852,4.852,0,0,0,1.222,1.167,2.746,2.746,0,0,1-1-.786C49.329,663.705,49.195,663.6,49.18,663.45Z" transform="translate(-49.18 -663.45)"/></g><g transform="translate(26.065 29.447)"><path class="j" d="M435.09,666.231h.038l.024.029-.045.016Z" transform="translate(-435.09 -666.23)"/></g><g transform="translate(23.447 29.632)"><path class="o" d="M395.5,669.041l.091-.011c.425.228.861.436,1.287.663l.011.067C396.415,669.542,395.957,669.291,395.5,669.041Z" transform="translate(-395.5 -669.03)"/></g><g transform="translate(4.986 30.163)"><path class="af" d="M116.36,677.3a1.837,1.837,0,0,1,.392-.254A.55.55,0,0,1,116.36,677.3Z" transform="translate(-116.36 -677.05)"/></g><g transform="translate(27.583 30.239)"><path class="c" d="M458.04,678.2l.065.03-.048.017Z" transform="translate(-458.04 -678.2)"/></g><g transform="translate(1.801 30.418)"><path class="ag" d="M68.2,680.912c.085-.044.194.118.073.144Z" transform="translate(-68.2 -680.905)"/></g><g transform="translate(4.825 30.421)"><path class="ah" d="M113.93,681.029l.146-.079-.077.127a1.907,1.907,0,0,1,.135.458A1.613,1.613,0,0,1,113.93,681.029Z" transform="translate(-113.93 -680.95)"/></g><g transform="translate(24.961 30.42)"><path class="i" d="M418.39,680.938c.136,0,.24.1.36.148.333.182.688.327,1.007.533l.022.059A14.97,14.97,0,0,1,418.39,680.938Z" transform="translate(-418.39 -680.938)"/></g><g transform="translate(1.789 30.63)"><path class="ae" d="M68.03,684.131l.054-.011-.063.133C68.023,684.223,68.027,684.162,68.03,684.131Z" transform="translate(-68.02 -684.12)"/></g><g transform="translate(1.647 30.826)"><path class="aa" d="M65.877,687.422c-.028-.1.038-.328.136-.342C66.006,687.2,65.987,687.355,65.877,687.422Z" transform="translate(-65.87 -687.08)"/></g><g transform="translate(29.075 30.876)"><path class="i" d="M482.152,688.56c.478-.237.936-.515,1.424-.73l-.024.073c-.432.232-.876.442-1.309.674-.1.062-.219.153-.345.122-.429-.229-.865-.444-1.3-.665l.013-.067c.425.2.837.432,1.255.651C481.965,688.679,482.066,688.6,482.152,688.56Z" transform="translate(-480.6 -687.83)"/></g><g transform="translate(5.026 31.032)"><path class="m" d="M116.97,690.19l.054,0,0,.125Z" transform="translate(-116.97 -690.19)"/></g><g transform="translate(1.588 31.228)"><path class="ae" d="M65,693.167l.053-.007-.065.13C64.993,693.259,65,693.2,65,693.167Z" transform="translate(-64.99 -693.16)"/></g><g transform="translate(5.088 31.195)"><path class="k" d="M117.91,692.65l.046.009a6.854,6.854,0,0,1,.282,1.118C118.116,693.407,118,693.03,117.91,692.65Z" transform="translate(-117.91 -692.65)"/></g><g transform="translate(1.537 31.423)"><path class="c" d="M64.211,696.107l.052-.007-.054.133C64.21,696.2,64.211,696.138,64.211,696.107Z" transform="translate(-64.21 -696.1)"/></g><g transform="translate(1.328 31.585)"><path class="c" d="M61.212,698.573l.044-.023a4.974,4.974,0,0,1-.2.733A2.564,2.564,0,0,1,61.212,698.573Z" transform="translate(-61.053 -698.55)"/></g><g transform="translate(0.998 32.319)"><path class="af" d="M56.353,709.656l.05-.006c-.072.43-.216.845-.282,1.276l-.05.12A10.486,10.486,0,0,1,56.353,709.656Z" transform="translate(-56.07 -709.65)"/></g><g transform="translate(5.416 32.322)"><path class="ae" d="M122.86,709.7c.121.066.071.3.153.431l-.019.1A2.215,2.215,0,0,1,122.86,709.7Z" transform="translate(-122.86 -709.7)"/></g><g transform="translate(30.595 32.472)"><path class="j" d="M503.607,712.647c.409-.255.857-.439,1.275-.677l.089.014c-.462.239-.911.516-1.392.71Z" transform="translate(-503.58 -711.97)"/></g><g transform="translate(29.257 32.667)"><path class="m" d="M483.35,714.913c.106-.012.187.067.278.107.294.153.591.3.884.458l.172-.019a.2.2,0,0,1-.276.036C484.059,715.294,483.679,715.145,483.35,714.913Z" transform="translate(-483.35 -714.912)"/></g><g transform="translate(0.526 32.853)"><path class="z" d="M53.957,717.724l.044,0c.174.833.354,1.665.446,2.511.061.292.044.593.108.886-.017.42.079.833.069,1.253a22.375,22.375,0,0,1-.075,2.571c-1.845.015-3.692.005-5.537,0a22.873,22.873,0,0,1-.077-2.777,25.972,25.972,0,0,1,.433-3.6l.032.033a23.284,23.284,0,0,0-.4,3.7,12.715,12.715,0,0,0,0,1.717,3.529,3.529,0,0,0,.052.864c1.813-.005,3.627,0,5.44,0a6.12,6.12,0,0,0,.067-1.255,7.54,7.54,0,0,0,0-.993,9.256,9.256,0,0,0-.062-1.32A23.787,23.787,0,0,0,53.957,717.724Z" transform="translate(-48.932 -717.72)"/></g><g transform="translate(46.012 38.623)"><path class="d" d="M736.7,805.154a.722.722,0,0,1,.3-.184C737.038,805.089,736.795,805.2,736.7,805.154Z" transform="translate(-736.7 -804.97)"/></g><g transform="translate(44.797 38.814)"><path class="h" d="M718.32,808.387c.4-.172.8-.349,1.2-.527l-.015.071c-.282.121-.558.259-.845.369C718.553,808.337,718.444,808.437,718.32,808.387Z" transform="translate(-718.32 -807.86)"/></g><g transform="translate(18.35 39.342)"><path class="ai" d="M332.963,818.581a38,38,0,0,0,11.922-2.741l.011.064a43.827,43.827,0,0,1-4.594,1.53,38.142,38.142,0,0,1-5.69,1.062c-.289.007-.571.091-.861.069a5.143,5.143,0,0,1-.993.068,7.684,7.684,0,0,1-1.317.062c-.838,0-1.675,0-2.512,0-.334,0-.661-.084-.994-.064a37.712,37.712,0,0,1-9.338-1.84l-.155-.03.025-.055a39.449,39.449,0,0,0,8.152,1.76c.877.079,1.757.172,2.641.165a19.491,19.491,0,0,0,2.116.025C331.9,818.595,332.437,818.666,332.963,818.581Z" transform="translate(-318.44 -815.84)"/></g><g transform="translate(16.381 39.475)"><path class="i" d="M288.66,817.85c.659.245,1.32.49,1.983.728-.134.05-.251-.049-.374-.082-.544-.171-1.067-.4-1.606-.582Z" transform="translate(-288.66 -817.85)"/></g></g></svg>