<svg xmlns="http://www.w3.org/2000/svg" width="31.128" height="31.826" viewBox="0 0 31.128 31.826"><defs><style>.a{fill:#fff;}</style></defs><g transform="translate(0 0)"><g transform="translate(0 0)"><path class="a" d="M39.843,18.09a18.174,18.174,0,0,1,.308,3.341c0,9.092-6.074,15.556-15.246,15.556a15.913,15.913,0,0,1,0-31.826A15.234,15.234,0,0,1,35.527,9.308L31.05,13.793v-.011a8.68,8.68,0,0,0-6.143-2.407,9.694,9.694,0,0,0,0,19.384c4.756,0,7.99-2.726,8.657-6.464H24.907V18.09Z" transform="translate(-9.023 -5.161)"/></g></g></svg>