<svg width="28" height="26" viewBox="0 0 28 26" fill="none" xmlns="http://www.w3.org/2000/svg">
<g id="Left Bar">
<g id="Sign Out">
<g id="Iconly/Light Outline/Logout">
<g id="Logout">
<path id="Combined Shape" fill-rule="evenodd" clip-rule="evenodd" d="M13.0206 0C16.2004 0 18.7874 2.587 18.7874 5.7668V6.9784C18.7874 7.5166 18.3506 7.9534 17.8124 7.9534C17.2742 7.9534 16.8374 7.5166 16.8374 6.9784V5.7668C16.8374 3.6608 15.1253 1.95 13.0206 1.95H6.68307C4.58097 1.95 2.87017 3.6608 2.87017 5.7668V20.2345C2.87017 22.3392 4.58097 24.05 6.68307 24.05H13.0349C15.1305 24.05 16.8374 22.3444 16.8374 20.2488V19.0229C16.8374 18.4847 17.2742 18.0479 17.8124 18.0479C18.3506 18.0479 18.7874 18.4847 18.7874 19.0229V20.2488C18.7874 23.4208 16.2056 26 13.0349 26H6.68307C3.50587 26 0.920166 23.4143 0.920166 20.2345V5.7668C0.920166 2.587 3.50587 0 6.68307 0H13.0206ZM23.5247 8.5202L27.3311 12.3097C27.3651 12.3434 27.3955 12.3784 27.4233 12.4155L27.3311 12.3097C27.3772 12.3551 27.4181 12.4047 27.4537 12.4576C27.4693 12.4816 27.4844 12.5064 27.4984 12.5319C27.5097 12.5518 27.5202 12.5726 27.5298 12.5937C27.538 12.6124 27.5459 12.631 27.5532 12.65C27.563 12.6747 27.5716 12.7001 27.5791 12.7258C27.5848 12.7461 27.59 12.7663 27.5946 12.7868C27.6004 12.8116 27.605 12.8366 27.6086 12.8618C27.6106 12.8782 27.6126 12.8953 27.6141 12.9126C27.6171 12.9422 27.6184 12.9711 27.6184 13L27.6118 13.0806L27.6091 13.1322C27.6088 13.1344 27.6085 13.1367 27.6082 13.1389L27.6184 13C27.6184 13.0722 27.6104 13.1436 27.5949 13.2131C27.59 13.2337 27.5848 13.2539 27.579 13.2738C27.5716 13.2999 27.563 13.3253 27.5534 13.3503C27.5459 13.369 27.538 13.3876 27.5296 13.406C27.5202 13.4274 27.5097 13.4482 27.4985 13.4686C27.4844 13.4936 27.4693 13.5184 27.4532 13.5424C27.444 13.5567 27.434 13.5707 27.4236 13.5845C27.3927 13.6253 27.359 13.6636 27.3225 13.6991L23.5247 17.4811C23.3349 17.6709 23.0853 17.7658 22.837 17.7658C22.5874 17.7658 22.3365 17.6709 22.1467 17.4785C21.7671 17.0963 21.7684 16.4801 22.1493 16.1005L24.2812 13.975H10.9897C10.4515 13.975 10.0147 13.5382 10.0147 13C10.0147 12.4618 10.4515 12.025 10.9897 12.025H24.2838L22.1493 9.9008C21.7684 9.5212 21.7658 8.905 22.1467 8.5228C22.5263 8.1406 23.1425 8.1406 23.5247 8.5202Z" fill="#E55858"/>
</g>
</g>
</g>
</g>
</svg>
