<svg xmlns="http://www.w3.org/2000/svg" width="50.19" height="57.712" viewBox="0 0 50.19 57.712"><defs><style>.a{opacity:0.595;}.b{fill:#fbfbfb;}</style></defs><g class="a" transform="translate(0 0)"><path class="b" d="M400.6,114.893a8.242,8.242,0,0,1,7.254-.111c.236.09.239.379.3.586a8.239,8.239,0,0,1-.268,4.294,8.454,8.454,0,0,1-3.563,4.438,8.241,8.241,0,0,1-8.034.358,8.319,8.319,0,0,1,4.308-9.565Z" transform="translate(-367.115 -113.996)"/><path class="b" d="M292.6,136.525c.168-.4.672-.4,1.042-.449a5.636,5.636,0,0,1,4.18,1.782,10.083,10.083,0,0,1,2.968,5.905,5.777,5.777,0,0,1-.774,3.835.358.358,0,0,1-.284.166,18.77,18.77,0,0,0-.548-2.554A7.435,7.435,0,0,0,295.743,141a10.9,10.9,0,0,0-2.929-1.061.877.877,0,0,1-.622-.832A5.022,5.022,0,0,1,292.6,136.525Z" transform="translate(-274.212 -133.738)"/><path class="b" d="M135.559,258.6a19.222,19.222,0,0,1,3.86.059,20.745,20.745,0,0,1,4.49.893,7.894,7.894,0,0,0,5.213.2,22.445,22.445,0,0,1,6.728-1.213,15.736,15.736,0,0,1,11.16,3.937,13.9,13.9,0,0,1,3.488,4.952,21.067,21.067,0,0,1,1.16,10.828,33.97,33.97,0,0,1-4.058,12.082,22.406,22.406,0,0,1-7.843,8.381,16.952,16.952,0,0,1-5.911,2.2,13.861,13.861,0,0,1-2.643.065c-1.3-.077-2.575-.409-3.878-.464a16.2,16.2,0,0,0-3.5.3,14.8,14.8,0,0,1-4,.109,16.346,16.346,0,0,1-5.121-1.72,21.734,21.734,0,0,1-8.5-8.469,33.817,33.817,0,0,1-4.286-12.483,24.482,24.482,0,0,1-.164-4.944,16.273,16.273,0,0,1,3.157-9.02A15.194,15.194,0,0,1,135.559,258.6Z" transform="translate(-121.692 -243.304)"/></g></svg>