<svg xmlns="http://www.w3.org/2000/svg" width="43.849" height="50.421" viewBox="0 0 43.849 50.421"><defs><style>.a{opacity:0.595;}.b{fill:#fbfbfb;}</style></defs><g class="a" transform="translate(-121.692 -113.995)"><path class="b" d="M400.016,114.78a7.2,7.2,0,0,1,6.338-.1c.206.078.209.331.264.512a7.2,7.2,0,0,1-.234,3.751,7.386,7.386,0,0,1-3.113,3.877,7.2,7.2,0,0,1-7.019.313,7.268,7.268,0,0,1,3.763-8.357Z" transform="translate(-249.073)"/><path class="b" d="M292.545,136.466c.147-.352.587-.352.91-.392a4.924,4.924,0,0,1,3.652,1.557,8.809,8.809,0,0,1,2.593,5.159,5.047,5.047,0,0,1-.676,3.35.313.313,0,0,1-.248.145,16.4,16.4,0,0,0-.478-2.231,6.5,6.5,0,0,0-3.006-3.681,9.523,9.523,0,0,0-2.559-.927.766.766,0,0,1-.544-.727A4.388,4.388,0,0,1,292.545,136.466Z" transform="translate(-154.787 -20.036)"/><path class="b" d="M133.808,258.594a16.8,16.8,0,0,1,3.372.052,18.124,18.124,0,0,1,3.923.78,6.9,6.9,0,0,0,4.555.172,19.61,19.61,0,0,1,5.878-1.06,13.748,13.748,0,0,1,9.75,3.439,12.147,12.147,0,0,1,3.047,4.326,18.406,18.406,0,0,1,1.013,9.46A29.679,29.679,0,0,1,161.8,286.32a19.576,19.576,0,0,1-6.852,7.322,14.81,14.81,0,0,1-5.164,1.919,12.107,12.107,0,0,1-2.31.057c-1.137-.067-2.25-.357-3.388-.406a14.155,14.155,0,0,0-3.056.264,12.927,12.927,0,0,1-3.495.095,14.281,14.281,0,0,1-4.474-1.5,18.988,18.988,0,0,1-7.425-7.4,29.545,29.545,0,0,1-3.745-10.906,21.391,21.391,0,0,1-.144-4.319,14.217,14.217,0,0,1,2.759-7.88A13.275,13.275,0,0,1,133.808,258.594Z" transform="translate(0 -131.232)"/></g></svg>