<svg xmlns="http://www.w3.org/2000/svg" width="52.865" height="60.787" viewBox="0 0 52.865 60.787"><defs><style>.a{opacity:0.595;}.b{fill:#fbfbfb;}</style></defs><g class="a" transform="translate(0 0)"><path class="b" d="M400.841,114.941a8.681,8.681,0,0,1,7.641-.116c.248.094.252.4.318.617a8.679,8.679,0,0,1-.282,4.523,8.9,8.9,0,0,1-3.753,4.675,8.68,8.68,0,0,1-8.462.377,8.763,8.763,0,0,1,4.537-10.075Z" transform="translate(-365.575 -113.995)"/><path class="b" d="M292.623,136.549c.177-.424.708-.424,1.1-.473a5.937,5.937,0,0,1,4.4,1.877,10.62,10.62,0,0,1,3.126,6.22,6.085,6.085,0,0,1-.815,4.039.377.377,0,0,1-.3.175,19.77,19.77,0,0,0-.577-2.69,7.832,7.832,0,0,0-3.624-4.437,11.48,11.48,0,0,0-3.085-1.117.924.924,0,0,1-.656-.876A5.29,5.29,0,0,1,292.623,136.549Z" transform="translate(-273.254 -133.613)"/><path class="b" d="M136.3,258.608a20.25,20.25,0,0,1,4.066.062,21.85,21.85,0,0,1,4.729.941,8.314,8.314,0,0,0,5.491.207,23.642,23.642,0,0,1,7.086-1.278,16.575,16.575,0,0,1,11.754,4.147A14.645,14.645,0,0,1,173.1,267.9a22.19,22.19,0,0,1,1.221,11.4,35.781,35.781,0,0,1-4.274,12.726,23.6,23.6,0,0,1-8.261,8.828,17.855,17.855,0,0,1-6.226,2.313,14.593,14.593,0,0,1-2.784.069c-1.371-.081-2.712-.43-4.085-.489a17.068,17.068,0,0,0-3.684.318,15.585,15.585,0,0,1-4.213.114,17.218,17.218,0,0,1-5.394-1.812,22.892,22.892,0,0,1-8.951-8.92,35.62,35.62,0,0,1-4.515-13.148,25.789,25.789,0,0,1-.173-5.207,17.14,17.14,0,0,1,3.326-9.5A16,16,0,0,1,136.3,258.608Z" transform="translate(-121.692 -242.492)"/></g></svg>