<svg xmlns="http://www.w3.org/2000/svg" width="50.747" height="42.889" viewBox="0 0 50.747 42.889"><defs><style>.a{fill:#6b7477;stroke:#6b7477;stroke-width:4px;}</style></defs><g transform="translate(3.167 3.618)"><path class="a" d="M50.06,150.371a23.97,23.97,0,0,0,2.458.911,61.112,61.112,0,0,0,6.153,1.587,68.1,68.1,0,0,0,17.455,1.262A66.711,66.711,0,0,0,90.4,151.772a31.893,31.893,0,0,0,4.088-1.4c-.436,1.446-.858,2.9-1.3,4.342a1.978,1.978,0,0,1-.463.769,3.012,3.012,0,0,1-2.073.873c-.113.339-.194.69-.32,1.023a2.509,2.509,0,0,1-1.623,1.337,6.744,6.744,0,0,1-1.625.175c-.389.02-.778.024-1.166.051,0,.917,0,1.835,0,2.752-.7,0-1.407,0-2.11,0q0,12.974,0,25.948-2.623,0-5.246,0,0-12.975,0-25.949-6.29,0-12.579,0,0,12.974,0,25.948-2.623,0-5.246,0,0-12.975,0-25.949c-.477.005-.955,0-1.433,0q0-1.376,0-2.752c-.746-.036-1.492-.043-2.238-.077a3.766,3.766,0,0,1-1.571-.274,2.345,2.345,0,0,1-1.328-1.326c-.1-.3-.182-.607-.275-.909a3.071,3.071,0,0,1-1.994-.792,2.027,2.027,0,0,1-.546-.858C50.916,153.263,50.494,151.814,50.06,150.371Z" transform="translate(-50.061 -150.369)"/></g></svg>