<svg xmlns="http://www.w3.org/2000/svg" width="41.339" height="47.533" viewBox="0 0 41.339 47.533"><defs><style>.a{fill:#6b7477;}</style></defs><g transform="translate(0 0)"><path class="a" d="M399.787,114.735a6.788,6.788,0,0,1,5.975-.091c.194.074.2.312.249.482a6.786,6.786,0,0,1-.22,3.537,6.963,6.963,0,0,1-2.935,3.655,6.788,6.788,0,0,1-6.617.295,6.852,6.852,0,0,1,3.548-7.878Z" transform="translate(-372.21 -113.996)"/><path class="a" d="M292.523,136.443c.139-.331.553-.331.858-.37a4.642,4.642,0,0,1,3.443,1.468,8.3,8.3,0,0,1,2.444,4.864,4.759,4.759,0,0,1-.638,3.158.3.3,0,0,1-.234.137,15.459,15.459,0,0,0-.451-2.1,6.124,6.124,0,0,0-2.834-3.47,8.978,8.978,0,0,0-2.412-.874.722.722,0,0,1-.513-.685A4.136,4.136,0,0,1,292.523,136.443Z" transform="translate(-277.377 -134.148)"/><path class="a" d="M133.114,258.59a15.832,15.832,0,0,1,3.179.049,17.09,17.09,0,0,1,3.7.736,6.5,6.5,0,0,0,4.294.162,18.486,18.486,0,0,1,5.541-1,12.961,12.961,0,0,1,9.192,3.242,11.452,11.452,0,0,1,2.873,4.079,17.351,17.351,0,0,1,.955,8.918,27.979,27.979,0,0,1-3.342,9.951,18.455,18.455,0,0,1-6.46,6.9,13.962,13.962,0,0,1-4.868,1.809,11.413,11.413,0,0,1-2.177.054c-1.072-.063-2.121-.337-3.194-.383a13.345,13.345,0,0,0-2.881.249,12.188,12.188,0,0,1-3.295.089,13.462,13.462,0,0,1-4.218-1.417,17.9,17.9,0,0,1-7-6.975,27.853,27.853,0,0,1-3.531-10.281,20.166,20.166,0,0,1-.135-4.072,13.4,13.4,0,0,1,2.6-7.429A12.515,12.515,0,0,1,133.114,258.59Z" transform="translate(-121.692 -245.989)"/></g></svg>