<svg xmlns="http://www.w3.org/2000/svg" width="70.466" height="61.185" viewBox="0 0 70.466 61.185"><defs><style>.a{fill:#fbfbfb;}</style></defs><g transform="translate(0 0)"><path class="a" d="M131.684,145.23c1.263-.03,2.526-.038,3.789,0l-.023.1-.7.076.837.072-.1.118.407-.045-.06.136.617-.006-.039.079c.244.05.484.114.725.173-.015.05-.044.147-.058.2l.5.007-.028.166.233-.106-.014.188.258-.043-.032.209c.2.059.392.123.59.183-.008.051-.024.151-.033.2l.264-.025c-.008.059-.024.176-.033.235l.371.009-.045.235.265-.023c-.008.062-.023.186-.03.248l.257-.025c-.008.064-.024.192-.03.256l.25-.033c-.006.065-.018.2-.024.26l.237-.035c0,.09,0,.273.007.364l.236-.033-.023.26.235-.032c0,.091,0,.274,0,.365l.235-.026c-.007.065-.021.2-.028.262l.238-.036c0,.094-.006.282-.008.377l.167-.03c-.02.06-.062.178-.082.238h.741l-.06-.222.145.006c.049-.144.1-.289.145-.433.112-.063.222-.125.335-.187l-.08-.18.191.012c-.011-.063-.033-.187-.044-.249l.2.021c.152-.231.307-.459.456-.691l.166.05-.051-.18.177.038c-.01-.063-.03-.191-.039-.254l.253.043-.029-.179.241.054c0-.067-.012-.2-.017-.265l.255.037c-.007-.06-.019-.18-.026-.24l.361-.007c-.009-.056-.028-.168-.037-.224l.381,0c-.009-.055-.028-.165-.038-.219l.376-.007c-.01-.055-.032-.168-.043-.223l.385.009-.029-.168.242.1-.025-.184.257.044-.018-.192.235.106-.027-.183.382.033-.042-.1a9.289,9.289,0,0,0,1.041-.162c.006-.046.016-.14.021-.187l-.515-.091c1.385-.106,2.775-.077,4.162-.044-.041.064-.121.192-.16.256l.246-.064-.078.168.407-.035-.063.133.62,0-.047.114c.2,0,.4,0,.6.007-.006.062-.018.186-.024.248l.255-.069-.034.167.379-.03-.042.141.36-.02c.091.121.184.241.275.363l.18-.061-.007.191.236-.078v.077c.177.133.356.265.532.4l.259.032c-.008.056-.025.169-.033.226l.256-.026-.023.242.168,0q.2.206.406.408c0,.039,0,.118,0,.158l.175-.014c.236.3.476.588.687.9l.081,0-.063.237.277-.011c-.016.062-.045.184-.06.245l.18-.016-.073.24.178-.018c-.012.062-.038.186-.052.248l.271-.016c-.017.062-.051.186-.069.248l.157-.037c0,.165,0,.329,0,.494l.167-.037-.1.244.2-.018c-.017.062-.05.186-.065.248l.2-.016c-.027.06-.08.18-.106.24l.166-.035c0,.2,0,.411,0,.616l.121-.058c0,.127-.011.383-.015.511l.134-.064c-.006.127-.016.381-.021.509l.136-.055c-.01.173-.019.345-.028.519l.12-.071c0,.815,0,1.631,0,2.446l-.115-.073c.007.212.011.423.019.635l-.126-.062c0,.212.006.424.009.636l-.123-.085c0,.212,0,.424.007.636l-.113-.062c0,.28-.007.56-.009.84l-.214-.021.235.232-.254-.02c.007.095.021.286.028.381l-.149-.06c.009.1.026.291.034.388l-.135-.045c0,.164.01.328.017.493l-.126-.03v.488l-.227-.052c0,.1.011.291.016.387l-.141-.043c.008.095.026.284.034.379l-.138-.036c0,.095.012.285.017.381l-.233-.041.009.376-.139-.045c.007.094.019.282.026.376l-.173-.019c.025.059.074.176.1.233l-.191-.016c.012.064.038.191.051.255l-.248-.029c0,.094.011.281.016.374l-.135-.042c0,.094.011.281.015.374l-.249-.026c.014.063.042.188.055.25l-.187-.024c.02.06.061.182.082.242l-.165-.027.009.373-.242-.025c.012.062.035.187.047.249l-.186-.024c.02.06.06.178.079.238l-.189-.012c.018.06.056.18.074.24l-.183-.018c.015.061.043.183.058.245l-.27-.012.054.244-.182-.021.071.239-.194-.008c.021.059.065.175.088.233l-.178-.041.03.179-.231-.047c0,.094,0,.28.006.372l-.165-.024c.009.032.026.095.034.126-.141.177-.277.357-.415.538v0c-.192.266-.378.537-.549.818l-.157-.037.037.173-.168-.034c.009.042.027.126.037.169-.043.074-.126.223-.169.3l-.2-.021c.011.062.035.184.046.246l-.18-.023c.015.061.042.182.056.241l-.259-.011.036.248-.255-.021c.008.062.023.188.029.25l-.17-.03c.015.06.046.182.061.241l-.264-.01c.007.062.023.186.03.247l-.242-.025c0,.09,0,.272,0,.363l-.238-.035.027.259-.261-.026c.014.062.038.186.052.248l-.188-.018.08.237-.184-.039.046.174-.254-.05c.01.064.033.193.044.257l-.161-.037.038.168-.168-.037c.014.06.042.179.056.239l-.266-.02c.008.064.025.192.033.256l-.2-.027-.186.382-.187-.055c0,.092-.008.277-.01.37l-.239-.029c.006.061.017.182.024.242l-.27,0,.072.23-.176-.037.037.169-.248-.043.027.257-.258-.016.054.238-.165-.037.021.169-.219-.041c-.007.063-.021.187-.028.249a2.667,2.667,0,0,0-.535.535l-.063.026a7.245,7.245,0,0,1-.842.853v.171l-.247-.029c.007.064.021.192.029.256l-.206-.029-.176.378-.206-.049c.006.067.018.2.025.267l-.245-.028.014.275c-.132-.046-.244-.162-.386-.167-.209.135-.054.425-.068.613l-.135-.083.027.194-.232-.052c0,.091-.009.273-.011.364l-.186-.029-.193.306-.429.321c.009.046.026.139.035.185l-.173-.009q-.2.206-.409.407l.014.169-.254-.028.059.173-.173-.079.039.123c-.169.167-.336.334-.5.5l-.122-.033.063.245-.265-.03.037.173-.239-.05c0,.091,0,.272-.007.363l-.247-.028c.01.062.029.186.039.248-.315,0-.628,0-.942,0,.012-.044.035-.132.047-.177-.1-.092-.2-.184-.3-.276q-.24-.232-.5-.441l.018-.15-.091.068-.2-.209.062-.092-.17.029c-.117-.171-.236-.339-.356-.506l-.127-.1-.422-.368a5.513,5.513,0,0,0-.758-.772l.009-.167-.161.01q-.2-.213-.41-.419l.014-.158-.257.028.032-.255-.255.028.032-.258-.256.035c.008-.064.023-.192.029-.256l-.255.023c.008-.064.023-.193.03-.257l-.254.037c.007-.064.023-.193.03-.257l-.257.025.036-.254-.259.028.032-.248h-.148a5.471,5.471,0,0,0-.557-.619c.007-.041.018-.122.024-.162l-.26.021c.008-.064.023-.193.03-.257l-.247.045.039-.173-.169.039c.012-.062.038-.185.052-.246l-.264.024c.007-.062.023-.187.029-.249l-.251.018c0-.037.006-.112.008-.149a4.355,4.355,0,0,1-.535-.635H133.6c.006-.06.018-.178.025-.238l-.255.008c.01-.061.03-.182.042-.241l-.261.017c.007-.061.021-.184.028-.246l-.257.018c.012-.059.039-.176.053-.235l-.165.018.021-.166-.237.054c.008-.064.025-.193.033-.257l-.187.015c.02-.046.059-.139.079-.186l-.4-.191c.018-.047.055-.141.074-.187l-.191.015c.011-.062.035-.185.046-.247l-.257.025.027-.259-.237.036c0-.092,0-.277,0-.37l-.237.035c.006-.065.018-.2.025-.263l-.237.034c0-.092,0-.276,0-.368l-.236.039.043-.177-.171.051.05-.25-.244.021c0-.09,0-.27,0-.359l-.239.029c.007-.065.019-.2.025-.262l-.233.033v-.319l-.346-.178c0-.078.006-.236.008-.315l-.251.012.063-.246-.178.035.036-.255-.236.027c0-.091,0-.274,0-.365l-.237.025c.007-.064.019-.194.026-.258l-.159.018a3.321,3.321,0,0,0-.478-.76c-.063-.129-.126-.257-.187-.386l-.115.026c.01-.064.028-.192.038-.255l-.2.037c-.059-.2-.122-.4-.18-.6l-.205.041c.01-.065.029-.2.039-.262l-.188.018.1-.23-.115.011c-.14-.271-.288-.538-.43-.807l-.085.028c.007-.094.018-.28.024-.373l-.158.036c.014-.065.039-.2.053-.26l-.246.035c0-.094.006-.282.008-.376l-.182.021c.03-.059.092-.175.124-.232l-.177.02c0-.095.006-.285.008-.38l-.23.045c0-.095.009-.285.011-.38l-.141.039c.009-.094.026-.283.035-.378l-.141.038.023-.383-.169.07.089-.191-.17.063.023-.383-.142.042c.009-.1.028-.29.038-.387l-.134.047c0-.165.006-.329.008-.494l-.164.033c.02-.062.063-.188.083-.25l-.2.021.1-.246-.2.019.13-.392-.18.09c-.007-.29-.015-.58-.019-.869l-.114.068c0-.082,0-.247,0-.329a4.979,4.979,0,0,1-.229-1.984l-.1.052c-.044-.821.1-1.63.129-2.447.048-.177.091-.356.133-.536l.2.052-.218-.255.21.026c0-.166-.008-.33-.011-.5l.124.038c0-.166-.007-.332-.009-.5l.157.067-.074-.187.192.046c-.024-.06-.069-.182-.091-.241l.2.008-.09-.237.168.023c-.006-.094-.016-.281-.02-.374l.164.033-.068-.244.279.008c-.017-.061-.051-.183-.069-.244l.085.012a5.911,5.911,0,0,1,.449-.748,10.938,10.938,0,0,1,1.556-1.56l-.027-.161h.37l-.034-.159.245.062c0-.069-.012-.205-.017-.274l.248.055-.02-.183.239.074-.008-.188.237.079c0-.071-.006-.211-.008-.281l.242.058-.027-.164.369.028-.038-.142.379.027-.036-.166.256.071c-.006-.055-.016-.168-.021-.224.392-.041.778-.125,1.169-.174l-.05-.156.361.206C131.7,145.59,131.688,145.351,131.684,145.23Z" transform="translate(-122.174 -145.203)"/><path class="a" d="M601.47,394.575l-.051-.121q5.115,0,10.232,0a4.54,4.54,0,0,1,1.314.262c-.01.053-.029.158-.039.21l.261-.038,0,.064a3.173,3.173,0,0,1,.515.627l.091.007c-.027.055-.083.168-.111.224l.158-.023.057.434c.033-.175.1-.522.131-.7a11.478,11.478,0,0,1,.089,1.351v24.7a18.372,18.372,0,0,1-.1,2.588c-.03-.221-.091-.661-.121-.881-.018.161-.052.484-.07.645l-.151-.058c.024.061.07.184.094.245l-.2-.012c.018.061.055.182.073.241l-.178-.037.049.174-.254-.05c.007.062.021.185.028.247h-.369c.009.061.025.183.033.244l-.255-.049.016.2-.236-.106.033.162q-5.665.034-11.33,0l.034-.16-.238.1.018-.193-.256.046c.008-.061.023-.182.031-.242l-.378-.006.045-.186-.394-.186c.023-.047.065-.143.087-.191l-.1,0c-.124-.206-.255-.408-.39-.607-.007-.184-.012-.368-.016-.548l-.1.048q.019-13.276,0-26.552l.123.052c-.009-.1-.028-.292-.037-.389l.175.034-.09-.244.2.018c-.018-.061-.053-.184-.071-.245l.191.019c-.02-.06-.059-.179-.078-.239l.186.011c-.016-.061-.047-.182-.064-.242l.264.021c0-.067-.011-.2-.016-.264l.239.063-.021-.184.24.05c0-.069-.006-.207-.007-.277l.242.079-.033-.161Z" transform="translate(-543.656 -366.344)"/><path class="a" d="M153.154,437.453c1.86,0,3.719-.016,5.579,0l-.041.159.238-.08q.005,10.464,0,20.927l-.24-.068.041.153c-.807,0-1.614,0-2.42,0l.052.123-.386-.03.029.18-.245-.112.035.148a9.882,9.882,0,0,1-1.289.286l.043.134-.247-.1.012.206-.246-.1.041.167-.5-.008.043.132-.386-.041.05.136h-.5l.054.2c-.294.041-.651-.03-.839.27.008-.069.026-.208.034-.276a.381.381,0,0,1-.5.227l.08.169-.288-.059.045.161-.386-.03.05.126c-.239,0-.477.006-.715.009,0,.069.011.209.015.277l-.213-.3,0,.275-.247-.065.019.2c-.062-.026-.185-.08-.246-.107l.041.163c-.241,0-.482.007-.722.01.008.054.021.164.028.218-.056-.047-.17-.141-.228-.187l0,.229-.249-.083.045.173-.386-.028.053.1c-.285.05-.568.114-.853.164l.048.136-.231-.092-.07.432c-.028-.144-.083-.431-.112-.574l-.062.382c-.311.043-.618.112-.928.165l.043.142-.249-.114.035.152c-.24.056-.478.118-.719.168l.041.083-.5-.017.053.1c-.2.053-.406.112-.609.167l.05.108-.385-.035.041.132c-.168-.006-.335-.011-.5-.015l.051.134-.386-.027.034.183L142.8,463l.036.182-.383-.027.039.141-.379-.042.027.132c-.2,0-.4,0-.6.007l.069.16-.2-.089.068.14c-.28.056-.559.117-.841.157l.018.167-.241-.22.041.25-.387-.021.058.147-.386-.029.048.135c-.168-.006-.336-.011-.5-.015l.043.137-.367-.043.012.16-.258-.056.053.159-.385-.027.051.138c-.168-.007-.335-.011-.5-.017l.043.123-.5,0c.012.056.036.168.048.224l-.381-.007.026.187c-.059-.037-.178-.109-.238-.145l.032.188h-.616l.067.108-.812.044.827.281c-.965.063-1.934.058-2.9.036.012-.09.038-.27.051-.36l-.394.032.067-.134c-.205,0-.412,0-.616,0l.043-.131-.372.032.027-.167-.253.06c.008-.062.025-.187.033-.25l-.376.012.024-.17-.237.1.02-.186-.259.045c.008-.062.025-.186.034-.248l-.373.01.026-.17-.236.1.015-.187-.257.051.032-.25-.37.009.028-.169-.236.1.006-.194-.24.073.026-.184-.254.048c.006-.05.018-.151.025-.2-.237-.055-.47-.12-.7-.179.007-.056.023-.168.029-.224l-.254.061.032-.16-.373.017.024-.173-.182.077c-.095-.126-.187-.248-.282-.371l-.35.02.044-.138-.386.011c.015-.06.046-.18.061-.24l-.179.057.044-.164-.373.023.039-.141-.372.018.032-.208c-.164-.056-.326-.114-.488-.167l.027-.125-.238.09.006-.2-.242.085.052-.183-.184.045.044-.192-.239.112.025-.14c-.2-.057-.4-.118-.6-.174l.027-.217-.257.061.034-.122c-.2-.055-.4-.115-.6-.169.007-.054.021-.165.029-.219l-.259.061.041-.122c-.2-.055-.4-.115-.6-.168l.042-.124-.257.051c.007-.061.021-.184.028-.245l-.379.015.018-.051c-.185-.129-.369-.257-.55-.389l-.255-.021.039-.125-.372.017c.007-.062.023-.187.03-.249l-.255.045.017-.189-.236.1.026-.17-.376.012c.007-.061.02-.185.028-.246l-.254.051.025-.186-.239.079.007-.194-.238.094.027-.169-.364.008c.006-.064.018-.193.025-.256l-.257.065.036-.122c-.2-.056-.4-.117-.6-.173.008-.054.023-.162.03-.218l-.258.06.037-.159-.371.018.02-.173-.238.1.033-.188-.185.045.062-.194c-.241-.053-.478-.117-.716-.178l.032-.22-.258.057.044-.162-.374.015.019-.171-.232.1.015-.188-.256.047c.009-.062.027-.186.035-.248l-.372.009.024-.17-.236.1.015-.186-.256.048.032-.25-.371.01.029-.168-.237.09,0-.192-.127.036q-.218-.151-.439-.3l.009-.085-.236.09.007-.192-.24.077.024-.186-.253.052c.007-.061.02-.182.028-.242l-.485,0,.054-.1-.4-.156c.012-.047.036-.141.047-.188-.164,0-.326-.009-.488-.011l.027-.161-.239.089c0-.067,0-.2.006-.267l-.355.011.033-.162-.248.069.015-.18-.245.077.025-.182-.254.053c.007-.062.023-.187.029-.25l-.373.011.028-.169-.239.094.016-.187-.247.056.014-.277-.245.072.029-.164-.372.017.023-.177-.238.108.045-.191-.184.043.051-.184-.241.089,0-.2-.237.091.025-.168-.369.009c.008-.062.023-.188.03-.25l-.255.051.015-.187-.233.1.02-.169-.372.01c.008-.062.026-.186.034-.248l-.258.052.034-.121c-.2-.054-.4-.114-.6-.167l.046-.125-.189.055c.019-.057.056-.171.074-.228-.166-.007-.33-.011-.5-.016l.025-.18-.229.127.016-.2-.259.038c.009-.064.027-.191.035-.254l-.259.043.015-.188-.186.082c-.062-.13-.123-.258-.185-.387l-.214.028c.014-.064.041-.192.053-.256l-.175.05.073-.177-.159.05v-.374l-.179.037c-.042-.077-.124-.229-.165-.306.011-.045.033-.136.044-.183l-.157.035c.008-.1.023-.288.03-.383l-.116.065-.072-.708c-.029.235-.09.7-.121.937a17.525,17.525,0,0,1-.053-3.134l.256.116-.064-.208.164.053c-.006-.1-.018-.289-.024-.385l.138.045c0-.095-.012-.284-.017-.379l.239.03c-.007-.065-.023-.2-.029-.263l.237.027,0-.362.159.029c-.014-.061-.042-.182-.055-.241l.265.018c-.008-.063-.026-.188-.034-.251l.258.024c-.009-.052-.028-.153-.037-.2.125-.06.251-.117.377-.176-.009-.052-.026-.158-.035-.211l.255.045-.018-.179.238.071c0-.07-.006-.211-.008-.281l.24.062-.027-.166.371.027-.041-.142.388.035-.038-.185.432.18-.144-.232c.407-.007.814-.006,1.221-.008l-.068.134.4-.042-.067.107c.362.045.719.123,1.081.167l-.051.138.255-.107-.032.141c.2.052.4.109.606.161l-.037.087.609,0-.045.16.249-.092-.014.2.24-.083-.016.2.246-.088-.029.123c.316.049.627.125.942.185-.015.041-.046.122-.061.164.246.057.491.121.739.173l-.035.127.244-.1-.015.2.244-.065-.017.2.24-.1-.035.139c.238.055.476.116.715.167-.007.054-.019.162-.026.217l.256-.063-.035.162.379-.023-.027.173.239-.1-.026.175.372,0-.041.23.385-.012-.029.17.239-.106-.021.175.36-.008c0,.064-.012.194-.017.258l.248-.074-.027.164.374-.021-.034.16c.063-.016.189-.047.254-.062-.007.064-.019.193-.025.257l.368-.015-.041.14.374-.025-.032.164.248-.065c0,.069-.012.207-.017.276l.247-.062-.014.186.239-.087-.025.165.376-.01c-.01.063-.028.188-.038.251l.259-.056-.034.16.372-.024-.042.138.383-.009c-.014.051-.038.153-.051.2.166.053.332.108.5.16l-.041.095.376-.015-.032.248.255-.048-.016.193.235-.1-.025.166.484.008-.036.238.259-.044-.017.191.236-.1-.025.173.378-.02-.034.164.251-.07c0,.065-.015.2-.019.262l.365-.023-.037.133c.165,0,.328,0,.493-.007l-.054.133.385-.018c-.011.059-.032.176-.043.235l.391-.017-.055.132.494-.015-.03.134.376-.028-.034.183.247-.109-.034.182.39-.032-.063.106c.513.033,1.016.15,1.531.147l-.053.071a5.638,5.638,0,0,0,1.353.117l-.164.123c.6.012,1.2.025,1.794.02l-.053.1q1.431-.005,2.862,0l-.041-.1c.615.007,1.23-.016,1.845-.018l-.053-.123.513.027c-.016-.035-.048-.1-.064-.136l.511.023-.055-.13c.2,0,.4.008.6.014l-.016-.121c.2,0,.392.009.59.017l-.027-.139.38.039-.059-.151.4.036-.063-.111c.319-.052.636-.121.959-.16l-.042-.1.381.029-.032-.18.245.107-.033-.182.386.027-.051-.133c.167,0,.334.007.5.012l-.05-.129.395.017c-.011-.047-.033-.143-.044-.191.239-.054.476-.12.715-.179l-.065-.146.164.1,0-.388c-.844.007-1.687.016-2.529.006l.073.106a19.147,19.147,0,0,0-2.867.1,14.079,14.079,0,0,0-1.913.113c-1.837.046-3.675.02-5.511,0l-.024-.352c-.032.063-.094.191-.124.254l-.318-.011c.007-.059.02-.176.028-.235l-.244.219.026-.2c-.28,0-.559-.006-.839-.007l.052-.115q-.255.005-.511.014l.069-.162-.188.079.045-.2-.247.129.042-.187c-.167,0-.334,0-.5,0l.034-.16-.244.087.018-.185-.242.05c0-.068.011-.2.015-.271l-.209.053-.291-.394-.139.036.135-.238-.2.045.033-.185-.229.046q-.025-.756,0-1.51l.178.057c.06-.2.124-.4.184-.6l.121.026c-.015-.063-.044-.188-.06-.251l.262.024c-.009-.063-.026-.191-.035-.254l.245.026c0-.087,0-.261,0-.347l.14-.011a5.3,5.3,0,0,1,.638-.53l0-.155.253.034-.023-.237.371.006-.044-.159.255.053-.027-.249.376.021-.037-.139.382.029-.034-.178.246.114-.032-.191.368.036-.016-.14c.2.006.4.009.6.016-.008-.027-.023-.083-.029-.112,3.581-.012,7.162.019,10.744-.017-.011-.055-.035-.165-.046-.22l.378,0-.025-.2.227.147-.012-.187.38.026-.037-.166.248.08-.018-.2.239.077-.012-.2.242.095-.034-.162.5,0-.053-.132.381.018-.041-.238.377.024c-.007-.036-.021-.108-.028-.144l.374.036-.044-.133h.48c-.006-.064-.016-.191-.021-.255l.259.077L143,440.3c.283-.044.562-.108.842-.166l-.073-.131.2.078-.06-.132c.233-.055.467-.115.7-.165,0-.021-.011-.065-.016-.087l.488,0c-.011-.056-.035-.171-.047-.228l.383.014-.043-.144.381.039-.041-.133c.166,0,.332,0,.5.007l-.042-.165.247.092-.011-.206.242.1-.039-.171.5.009-.048-.083c.244-.047.486-.106.729-.16l-.035-.152.248.113-.039-.175.5.006-.046-.132.391.044-.048-.117c.289-.025.577-.05.865-.085l-.122-.127a6.251,6.251,0,0,1,1.227-.165l-.059-.092c.247,0,.494,0,.743,0l-.078-.118c.25,0,.5,0,.752,0l-.079-.115c.4,0,.8-.008,1.193-.006Z" transform="translate(-104.077 -404.488)"/></g></svg>