<svg xmlns="http://www.w3.org/2000/svg" width="84.064" height="96.662" viewBox="0 0 84.064 96.662"><defs><style>.a{fill:#fbfbfb;}</style></defs><path class="a" d="M403.694,115.5a13.8,13.8,0,0,1,12.15-.185c.4.15.4.635.506.981a13.8,13.8,0,0,1-.448,7.192,14.16,14.16,0,0,1-5.968,7.433,13.8,13.8,0,0,1-13.456.6,13.934,13.934,0,0,1,7.215-16.021Z" transform="translate(-347.617 -113.995)"/><path class="a" d="M292.893,136.837c.282-.674,1.125-.674,1.745-.751,2.665-.233,5.119,1.23,7,2.985a16.888,16.888,0,0,1,4.971,9.891,9.676,9.676,0,0,1-1.3,6.423.6.6,0,0,1-.476.279,31.442,31.442,0,0,0-.917-4.278,12.454,12.454,0,0,0-5.763-7.056,18.256,18.256,0,0,0-4.906-1.776,1.469,1.469,0,0,1-1.043-1.394A8.412,8.412,0,0,1,292.893,136.837Z" transform="translate(-262.094 -132.169)"/><path class="a" d="M144.919,258.657a32.2,32.2,0,0,1,6.465.1,34.749,34.749,0,0,1,7.52,1.5,13.221,13.221,0,0,0,8.732.33,37.6,37.6,0,0,1,11.268-2.032,26.356,26.356,0,0,1,18.691,6.594,23.287,23.287,0,0,1,5.842,8.294c2.4,5.7,2.717,12.064,1.942,18.136a56.9,56.9,0,0,1-6.8,20.237,37.528,37.528,0,0,1-13.137,14.038,28.391,28.391,0,0,1-9.9,3.678,23.208,23.208,0,0,1-4.428.109c-2.18-.129-4.313-.684-6.5-.778a27.141,27.141,0,0,0-5.858.506,24.78,24.78,0,0,1-6.7.182,27.377,27.377,0,0,1-8.577-2.881,36.4,36.4,0,0,1-14.234-14.184,56.641,56.641,0,0,1-7.179-20.907,41.008,41.008,0,0,1-.275-8.28,27.255,27.255,0,0,1,5.288-15.107A25.449,25.449,0,0,1,144.919,258.657Z" transform="translate(-121.692 -233.031)"/></svg>