<svg xmlns="http://www.w3.org/2000/svg" width="67.052" height="62.519" viewBox="0 0 67.052 62.519"><defs><style>.a{fill:#fff;}</style></defs><g transform="translate(-0.001 0)"><path class="a" d="M279.986,22.641a31.262,31.262,0,0,1,9.171-3.481q0,23.111,0,46.22a23.022,23.022,0,0,0-8.1,2.814,38.19,38.19,0,0,0-9.177,7.176,18.642,18.642,0,0,0-2.763,3.652q.008-23.384,0-46.767A31.029,31.029,0,0,1,279.986,22.641Z" transform="translate(-233.861 -19.16)"/><path class="a" d="M91.056,19.19a28.91,28.91,0,0,1,7.18,2.446A32.3,32.3,0,0,1,111.09,32.267q.01,23.38,0,46.76a19.717,19.717,0,0,0-2.761-3.629,38.5,38.5,0,0,0-8.426-6.751,23.549,23.549,0,0,0-8.851-3.237Q91.056,42.3,91.056,19.19Z" transform="translate(-79.301 -19.186)"/><path class="a" d="M2.01,49.57c2.3.352,4.628.556,6.946.8q0,23.1,0,46.207A22.187,22.187,0,0,1,19.4,99.453a40.481,40.481,0,0,1,10.924,8.35,48.336,48.336,0,0,0-7.52-3.044,77.37,77.37,0,0,0-20.8-3.369Z" transform="translate(-2.009 -45.556)"/><path class="a" d="M316.8,52.079c2.31-.226,4.62-.492,6.943-.539q0,25.915,0,51.829a68.949,68.949,0,0,0-18.335,2.567,53.578,53.578,0,0,0-9.986,3.848,38.678,38.678,0,0,1,9.816-7.927c3.53-1.979,7.441-3.635,11.558-3.571Q316.8,75.182,316.8,52.079Z" transform="translate(-256.689 -47.266)"/></g></svg>