<svg xmlns="http://www.w3.org/2000/svg" width="86.235" height="50.433" viewBox="0 0 86.235 50.433"><defs><style>.a{fill:#fff;}</style></defs><g transform="translate(0 0)"><path class="a" d="M25.886,2.051A7.742,7.742,0,0,1,32.49.676a8.217,8.217,0,0,1,4.868,3.415,7.671,7.671,0,0,1,1.319,5.024c-.15,1.44-.527,2.844-.817,4.26.434.751.877,1.5,1.289,2.257a9.61,9.61,0,0,1,1.766-1.985,5.442,5.442,0,0,1,6.769.273,8.093,8.093,0,0,1,1.364,1.714c.451-.737.9-1.479,1.331-2.226A32.865,32.865,0,0,1,49.524,8.5,8.709,8.709,0,0,1,50.71,4.362a10,10,0,0,1,2.93-2.888A8.178,8.178,0,0,1,59.177.6a7.908,7.908,0,0,1,4.174,2.313c1.147,1.213,2.16,2.544,3.188,3.857a15.705,15.705,0,0,1,2.8.808,18.344,18.344,0,0,1,4.479,2.548c1.1,1.015,2.088,2.139,3.11,3.229q2.167,2.367,4.277,4.783c.8.928,1.612,1.853,2.363,2.825a21.825,21.825,0,0,1,1.619,2.714,18.721,18.721,0,0,1,2.05,8.632v.155a20.187,20.187,0,0,1-.3,2.983,18.96,18.96,0,0,1-7.27,11.767,23.258,23.258,0,0,1-4.066,2.27,14.511,14.511,0,0,1-5,1.345c-.732.039-1.466.037-2.2.048a21.013,21.013,0,0,1-3.426-.18,19.346,19.346,0,0,1-11.57-7.143A25.449,25.449,0,0,1,50.7,38.6a25.621,25.621,0,0,1-.8-2.663,6.162,6.162,0,0,0-1.191,1.081,6.717,6.717,0,0,1-6.749,1.432,6.821,6.821,0,0,1-2.9-1.924,1.962,1.962,0,0,0-.667-.582c-.136,0-.132.163-.15.258a4.2,4.2,0,0,1-.182.888A21.375,21.375,0,0,1,35.8,42.152a17.8,17.8,0,0,1-5.959,5.925,24.188,24.188,0,0,1-4.276,2.035,17.72,17.72,0,0,1-6.252.758,16.394,16.394,0,0,1-5.232-.775A19.389,19.389,0,0,1,6.39,45.271,18.7,18.7,0,0,1,4.469,21.3c.556-.761,1.181-1.468,1.779-2.195q3.14-3.668,6.429-7.2a15.693,15.693,0,0,1,2.4-2.258,21.456,21.456,0,0,1,4.5-2.292,21.294,21.294,0,0,1,2.141-.582,28.925,28.925,0,0,1,4.161-4.719M17.772,17.108a15.091,15.091,0,0,0-8.424,4.133A15.465,15.465,0,0,0,5.129,28.58a14.185,14.185,0,0,0-.315,2.533,18.229,18.229,0,0,0,.3,4.536,15.335,15.335,0,0,0,3.1,6.115,15.943,15.943,0,0,0,8.547,5.221,15.839,15.839,0,0,0,3.069.188,14.2,14.2,0,0,0,3.418-.254A16.635,16.635,0,0,0,27.8,44.984a15.3,15.3,0,0,0,5.875-6.629A12.606,12.606,0,0,0,34.8,34.567a23.329,23.329,0,0,0,.1-4.058,9.89,9.89,0,0,0-.343-2.17,15.534,15.534,0,0,0-5.126-7.953,14.65,14.65,0,0,0-7.292-3.219,20.035,20.035,0,0,0-4.363-.059m48.488,0a15.106,15.106,0,0,0-8.366,4.106,15.458,15.458,0,0,0-4.237,7.34,16.35,16.35,0,0,0-.345,3.61,16.107,16.107,0,0,0,.344,3.559,15.339,15.339,0,0,0,3.025,5.966,15.739,15.739,0,0,0,6.839,4.765,10.1,10.1,0,0,0,2.951.68c1.173.048,2.347.037,3.521.014a8.078,8.078,0,0,0,2.3-.381,15.951,15.951,0,0,0,6.55-3.735,15.332,15.332,0,0,0,4.039-6.446,14.99,14.99,0,0,0,.585-4.679,13.356,13.356,0,0,0-.4-3.6,15.56,15.56,0,0,0-4.62-7.5,14.607,14.607,0,0,0-8.532-3.722,19.881,19.881,0,0,0-3.654.022M43.188,28.191a4.618,4.618,0,0,0-2.509,1.947,3.506,3.506,0,0,0-.506,2.72,4.434,4.434,0,0,0,1.656,2.571,3.24,3.24,0,0,0,1.854.7,4.21,4.21,0,0,0,3.491-1.438,4.032,4.032,0,0,0-3.986-6.5Z" transform="translate(-1.006 -0.446)"/></g></svg>