<svg xmlns="http://www.w3.org/2000/svg" width="188" height="187" viewBox="0 0 188 187"><defs><style>.a{fill:#091e24;stroke:#3d575e;stroke-width:4px;}.aa,.ab,.ac,.ad,.ae,.af,.ag,.ah,.ai,.aj,.b,.c,.d,.e,.f,.g,.h,.i,.j,.k,.l,.m,.n,.o,.p,.q,.r,.s,.t,.u,.v,.w,.x,.y,.z{fill:#fbfbfb;}.b{opacity:0.33;}.d{opacity:0.49;}.e{opacity:0.42;}.f{opacity:0.4;}.g{opacity:0.39;}.h{opacity:0.45;}.i{opacity:0.44;}.j{opacity:0.41;}.k{opacity:0.43;}.l{opacity:0.51;}.m{opacity:0.46;}.n{opacity:0.47;}.o{opacity:0.38;}.p{opacity:0.37;}.q{opacity:0.48;}.r{opacity:0.75;}.s{opacity:0.56;}.t{opacity:0.54;}.u{opacity:0.6;}.v{opacity:0.35;}.w{opacity:0.61;}.x{opacity:0.13;}.y{opacity:0.67;}.z{opacity:0.74;}.aa{opacity:0.57;}.ab{opacity:0.58;}.ac{opacity:0.69;}.ad{opacity:0.36;}.ae{opacity:0.53;}.af{opacity:0.55;}.ag{opacity:0.62;}.ah{opacity:0.76;}.ai{opacity:0.72;}.aj{opacity:0.52;}.ak{stroke:none;}.al{fill:none;}</style></defs><g transform="translate(0 -0.004)"><g class="a" transform="translate(0 0.004)"><ellipse class="ak" cx="94" cy="93.5" rx="94" ry="93.5"/><ellipse class="al" cx="94" cy="93.5" rx="92" ry="91.5"/></g></g><g transform="translate(34.689 47.299)"><g transform="translate(58.58 0)"><path class="b" d="M495.44,221.377a.87.87,0,0,1,1.223-.246c.313.208.785.3.963.638-.505-.215-.972-.509-1.468-.741A4.506,4.506,0,0,1,495.44,221.377Z" transform="translate(-495.44 -220.977)"/></g><g transform="translate(0.118 0.051)"><path class="c" d="M102.32,221.719a4.506,4.506,0,0,0,.718-.349c.5.232.963.526,1.468.741h0c.874.508,1.779.964,2.684,1.413l.035.014c.806.449,1.615.9,2.457,1.277l.057.025.046.059.077,0,.048.026c.869.532,1.788.987,2.7,1.439l.008.005q2.55,1.388,5.148,2.694l.031.017c1.85,1.032,3.753,1.97,5.62,2.975l.066-.026a23.644,23.644,0,0,0,2.409,1.3l.015.009c.884.5,1.783.974,2.7,1.41l.015.008c.807.45,1.615.907,2.462,1.279l.054.022.045.061h.079l.045.024c1.438.856,2.963,1.566,4.434,2.368,1.228.623,2.426,1.307,3.668,1.9l.05.023c1.607.915,3.275,1.722,4.9,2.6.974.477,1.91,1.034,2.9,1.487l.093.043c.817.494,1.683.9,2.525,1.355.947.473,1.863,1.012,2.824,1.459l.015.008q1.309.733,2.66,1.4l.085.037c1.78.967,3.572,1.921,5.387,2.818l.054.023.129.057.032.018c.236.229.574.3.82.516-1.548.918-3.21,1.651-4.764,2.562l-.04.026a21.108,21.108,0,0,0-2.2,1.165l-.031.019h-.076l-.045.063-.059.025c-.914.419-1.811.9-2.678,1.4l-.1.043c-1.351.643-2.658,1.388-3.993,2.066-2.256,1.2-4.533,2.35-6.776,3.569l-.027.013q-1.371.663-2.7,1.42l-.009.008c-1.816.9-3.613,1.86-5.4,2.823h0c-.914.447-1.819.915-2.7,1.417l-.009,0c-.918.428-1.812.911-2.69,1.414l-.022.012c-2.63,1.337-5.242,2.713-7.843,4.1l-.037.019c-1.8.922-3.6,1.841-5.362,2.819l-.048.023c-2.2,1.094-4.357,2.28-6.545,3.4a13.1,13.1,0,0,0-1.31.73l-.034.021-.13.057-.05.023c-.95.42-1.843.962-2.775,1.423-.166.086-.363.231-.554.113-.813-.425-1.616-.874-2.445-1.268l-.039-.019c-.893-.491-1.789-.985-2.713-1.409l-.054-.023-.126-.058-.043-.022a28.965,28.965,0,0,0-2.744-1.444l-.049-.022-.048-.055h-.075l-.036-.023c-.8-.486-1.638-.9-2.474-1.313l-.008,0c-.969-.535-1.95-1.053-2.943-1.542l-.01-.005c-1.788-.963-3.586-1.91-5.4-2.824l-.024-.013q-2.67-1.458-5.394-2.819l-.039-.021c-1.39-.786-2.828-1.486-4.234-2.243-.464-.231-.907-.5-1.388-.7l-.027-.014c-2.189-1.2-4.424-2.32-6.629-3.491-.584-.293-1.145-.633-1.744-.892h0c-.893-.5-1.793-1-2.727-1.415l-.058-.023-.046-.062h-.079l-.037-.022c-.874-.526-1.793-.983-2.708-1.436l-.028-.013c-1.219-.7-2.488-1.313-3.726-1.979-.571-.276-1.107-.626-1.7-.856l-.057-.025-.124-.057-.043-.022c-1.181-.726-2.457-1.29-3.67-1.964-.67-.334-1.315-.722-2-1.023l0,0c-.9-.489-1.8-1-2.734-1.419l-.046-.022-.131-.061-.119-.008c0-.057.005-.17.008-.227,1.735-.9,3.481-1.783,5.192-2.729l.026-.014c4.469-2.285,8.9-4.654,13.355-6.959a2.138,2.138,0,0,0,.433-.282l.043-.014.129-.062.054-.023a7.137,7.137,0,0,0,1.017-.5c1.468-.776,2.949-1.531,4.413-2.316l.013-.057a9.5,9.5,0,0,0,1.408-.682,9.025,9.025,0,0,0,1.227-.687l.111-.053a.879.879,0,0,0,.354-.134c.844-.478,1.732-.876,2.561-1.38l.005,0q2.606-1.292,5.162-2.7l.005,0c1.084-.519,2.147-1.085,3.2-1.665l.04-.021c.817-.4,1.629-.817,2.418-1.273h0c1.094-.508,2.147-1.107,3.216-1.668l.044-.021c1.231-.615,2.437-1.277,3.663-1.9.486-.281,1.012-.491,1.472-.815l.04-.022.125-.063.059-.026c1.629-.776,3.206-1.665,4.817-2.483,1.1-.61,2.256-1.134,3.333-1.789l.045-.027h.079l.043-.064Z" transform="translate(-43.857 -221.37)"/><path class="c" d="M47.058,505.8a4.194,4.194,0,0,0,.708.3l.063.019.046.062.084-.008.113.057c.031.021.092.063.121.085l.134.048.121.084.137.052c.028.021.085.061.112.081l.049.022c.262.232.6.329.88.539.008,3.07-.022,6.143.014,9.214a7.122,7.122,0,0,1,2.213.922,11.21,11.21,0,0,0,.918.657l.059.036a.37.37,0,0,0,.269.244l.019.112a.679.679,0,0,0,.5.561l0,.073a.275.275,0,0,0,.236.307l.017.031c.188.348.322.724.543,1.056l-.013.057.124.246v.139c.027.065.081.193.11.258l.008.061a7.783,7.783,0,0,1-.128,3.585l-.012.043c-.206.089-.236.361-.245.558l-.006.129-.076.04,0,.088-.062.126-.077.124-.015.046c-.271.287-.431.659-.708.942-.317.389-.71.7-1.054,1.067l-.023.015a3.57,3.57,0,0,0-.763.495l-.028.008-.285.153a3.146,3.146,0,0,0,.4.987l-.005.05.11.253.012.064c.171.741.4,1.475.638,2.2h0a4.323,4.323,0,0,0,.262,1.029l0,.013a46.367,46.367,0,0,1,1.066,6.99,18.038,18.038,0,0,1,.12,2.573,14.7,14.7,0,0,1-.009,1.936,11.929,11.929,0,0,1-.13,2.446c-3.534.009-7.069,0-10.6.006a6.876,6.876,0,0,1-.1-1.685,24.777,24.777,0,0,1-.009-3.346,45.382,45.382,0,0,1,.786-7.214l.006-.033.1-.233c.129-.842.41-1.65.55-2.488h0a9.688,9.688,0,0,0,.389-1.43l.012-.057c.026-.066.079-.195.1-.259l0-.125c.032-.064.1-.191.128-.254v-.117c.214-.13.251-.438.266-.666v-.122l.124-.259.041-.12c.237-.05.024-.366-.142-.28l-.071.009a9.46,9.46,0,0,1-2.381-2.274L42.8,526.1c-.184-.34-.338-.7-.53-1.031l0-.058c-.028-.063-.084-.188-.111-.251l-.01-.055a6.464,6.464,0,0,1-.267-1.866,6.574,6.574,0,0,1,1.547-4.438l.117-.125a12.744,12.744,0,0,1,1.774-1.368l.064-.021.108-.093.143-.006c.183-.024.483-.04.539-.254l.041,0a2.164,2.164,0,0,0,.8-.187C47.09,512.834,47.01,509.315,47.058,505.8Z" transform="translate(-41.876 -469.138)"/><path class="c" d="M302.045,583.843l.03-.023c.057,7.182.009,14.367.025,21.55a8.024,8.024,0,0,1-1.579,5.011,9.789,9.789,0,0,1-1.986,1.937l-.014.007a1.405,1.405,0,0,0-.584.358l-.023.014c-.78.347-1.561.692-2.346,1.027h0a74.052,74.052,0,0,1-23.236,5.341c-1.025.166-2.066.027-3.095.144a37.956,37.956,0,0,1-4.125-.048c-1.723.013-3.439-.169-5.148-.322a76.88,76.88,0,0,1-15.888-3.431l-.023-.006c-1.292-.464-2.579-.941-3.864-1.419h0c-.937-.416-1.905-.768-2.819-1.235a8.178,8.178,0,0,1-4.352-7.122q0-10.864.005-21.728c.492.214.942.519,1.445.717l.043.026c1.856,1.018,3.742,1.991,5.629,2.953l.015.009c.968.54,1.946,1.07,2.952,1.536l.019.009c2.1,1.156,4.245,2.227,6.361,3.353.51.245.989.557,1.518.76l.058.024.046.062.08,0,.04.028a30.241,30.241,0,0,0,2.7,1.431l.035.018c.891.487,1.784.977,2.706,1.4l.059.026.048.064.08,0,.058.024a29.3,29.3,0,0,0,2.708,1.441h0c1.594.894,3.237,1.7,4.849,2.565a3.787,3.787,0,0,0,.584.267l.058.025.045.062h.079l.049.023c.641.452,1.382.742,2.061,1.134a.4.4,0,0,0,.538-.07l.009-.035c.936-.379,1.812-.919,2.712-1.384l.012-.006c1.723-.9,3.472-1.759,5.153-2.73l.036-.025h.079l.045-.057.058-.025c1.887-.906,3.715-1.94,5.584-2.889.764-.415,1.552-.789,2.3-1.235l.026-.013c.909-.431,1.794-.915,2.678-1.4l.041-.019c1.89-.956,3.761-1.95,5.632-2.945l.036-.018c.817-.407,1.636-.821,2.426-1.283h0c.83-.414,1.673-.82,2.459-1.313l.05-.025h.075l.045-.058.05-.021c.84-.38,1.658-.821,2.457-1.283l.049-.022A19.651,19.651,0,0,0,302.045,583.843Z" transform="translate(-208.376 -537.102)"/></g><g transform="translate(17.539 0.401)"><path class="d" d="M494.08,224.09l.092.023-.043.064h-.079Z" transform="translate(-453.187 -224.09)"/><path class="d" d="M429.071,258.1l.094.028-.125.063Z" transform="translate(-396.557 -253.716)"/><path class="d" d="M192.025,382.09l.094.03-.129.062Z" transform="translate(-190.062 -361.724)"/><path class="d" d="M177.03,531.231h.079l.046.062-.092.027Z" transform="translate(-177.03 -491.641)"/></g><g transform="translate(34.505 0.516)"><path class="e" d="M438.441,224.981h.179c-1.078.655-2.23,1.179-3.333,1.789-1.611.817-3.188,1.707-4.817,2.483l.024-.131C433.159,227.768,435.788,226.355,438.441,224.981Z" transform="translate(-414.769 -224.98)"/><path class="e" d="M308.665,599.96q2.718,1.365,5.394,2.819l-.162.024c-1.631-.831-3.23-1.719-4.872-2.529C308.91,600.173,308.6,600.173,308.665,599.96Z" transform="translate(-308.657 -551.626)"/></g><g transform="translate(50.973 0.769)"><path class="f" d="M512.41,226.965l.162-.025c.831.455,1.694.851,2.515,1.325l.006.112C514.189,227.929,513.284,227.472,512.41,226.965Z" transform="translate(-502.615 -226.94)"/><path class="f" d="M659.64,304.024l.139,0c.746.406,1.516.766,2.262,1.169l.008.134A23.639,23.639,0,0,1,659.64,304.024Z" transform="translate(-630.868 -294.085)"/><path class="f" d="M436.42,666.83a28.974,28.974,0,0,1,2.744,1.444l-.178,0c-.837-.44-1.683-.862-2.521-1.3Z" transform="translate(-436.42 -610.13)"/></g><g transform="translate(63.486 2.199)"><path class="g" d="M533.5,238.061l.165-.021c.745.393,1.5.763,2.247,1.159l.045.139C535.115,238.96,534.306,238.509,533.5,238.061Z" transform="translate(-533.5 -238.04)"/></g><g transform="translate(66 3.493)"><path class="d" d="M553,248.108l.09-.028.034.085-.077,0Z" transform="translate(-553 -248.08)"/></g><g transform="translate(45.342 3.604)"><path class="g" d="M554.33,248.94A19.851,19.851,0,0,1,557,250.259l.028.12C556.118,249.927,555.2,249.472,554.33,248.94Z" transform="translate(-533.5 -248.94)"/><path class="g" d="M392.73,643.88c.993.489,1.973,1.007,2.943,1.542l-.159.024c-.911-.487-1.85-.925-2.745-1.442Z" transform="translate(-392.73 -592.974)"/></g><g transform="translate(17.722 4.898)"><path class="h" d="M393.542,258.985l.178-.005c-.46.324-.986.534-1.472.815-1.226.624-2.432,1.286-3.663,1.9l-.045-.119C390.226,260.748,391.868,259.836,393.542,258.985Z" transform="translate(-361.46 -258.98)"/><path class="h" d="M178.45,531.89c.934.415,1.834.918,2.727,1.415l-.169.021c-.828-.458-1.683-.864-2.52-1.306Z" transform="translate(-178.45 -496.713)"/><path class="h" d="M374.31,657.95l.173.006c.838.442,1.686.865,2.526,1.3l0,.122A30.256,30.256,0,0,1,374.31,657.95Z" transform="translate(-349.064 -606.524)"/><path class="h" d="M459.44,678.83c.924.424,1.82.918,2.713,1.409l-.143.034q-1.261-.663-2.532-1.3Z" transform="translate(-423.221 -624.713)"/></g><g transform="translate(68.881 5.034)"><path class="g" d="M575.35,260.044l.183-.014c1.516.768,3,1.6,4.522,2.352.139.122.409.148.443.356Q577.9,261.437,575.35,260.044Z" transform="translate(-575.35 -260.03)"/></g><g transform="translate(41.587 7.603)"><path class="i" d="M363.643,281.539c.983-.565,2.016-1.034,3.01-1.579l.164.032c-1.069.561-2.122,1.16-3.216,1.668Z" transform="translate(-363.6 -279.96)"/><path class="i" d="M529.3,691.11c.179-.076.334-.245.547-.2-1.681.971-3.43,1.832-5.153,2.73l0-.134C526.242,692.733,527.754,691.892,529.3,691.11Z" transform="translate(-503.926 -637.932)"/></g><g transform="translate(74.06 7.734)"><path class="j" d="M615.53,281l.153-.025q2.738,1.421,5.464,2.861l0,.138C619.284,282.974,617.38,282.037,615.53,281Z" transform="translate(-615.53 -280.98)"/></g><g transform="translate(39.133 9.283)"><path class="e" d="M346.491,293.192c.173-.062.317-.259.522-.174-.789.456-1.6.874-2.418,1.273l-.035-.116C345.2,293.851,345.844,293.515,346.491,293.192Z" transform="translate(-344.56 -292.997)"/></g><g transform="translate(35.927 10.57)"><path class="e" d="M320.142,304.35c.834-.507,1.734-.9,2.588-1.37l.16.028c-1.053.58-2.116,1.146-3.2,1.665C319.707,304.451,320,304.461,320.142,304.35Z" transform="translate(-319.69 -302.98)"/></g><g transform="translate(0.257 11.986)"><path class="i" d="M678.45,314l.155-.03c.839.445,1.686.874,2.532,1.306l.013.134C680.233,314.974,679.334,314.5,678.45,314Z" transform="translate(-596.538 -313.97)"/><path class="i" d="M48.162,439l.151.026c-1.71.946-3.457,1.828-5.192,2.729,0,.057-.006.17-.008.227l-.153-.018c0-.062,0-.188,0-.251C44.7,440.815,46.423,439.895,48.162,439Z" transform="translate(-42.96 -422.884)"/></g><g transform="translate(28.852 12.249)"><path class="k" d="M284.6,316.01l.164.017q-2.55,1.4-5.162,2.7c.089-.223.365-.275.547-.4C281.648,317.585,283.1,316.764,284.6,316.01Z" transform="translate(-277.692 -316.01)"/><path class="k" d="M264.8,576.99c.481.193.924.467,1.388.7,1.406.757,2.845,1.457,4.234,2.243l-.143.034c-1.714-.884-3.408-1.806-5.134-2.668C265.027,577.2,264.821,577.165,264.8,576.99Z" transform="translate(-264.8 -543.351)"/></g><g transform="translate(84.884 13.409)"><path class="e" d="M699.51,325.035l.152-.025c.745.4,1.513.762,2.257,1.167l.053.137C701.125,325.942,700.317,325.484,699.51,325.035Z" transform="translate(-699.51 -325.01)"/></g><g transform="translate(48.463 14.707)"><path class="l" d="M719.03,335.107l.09-.027.034.086h-.079Z" transform="translate(-680.093 -335.08)"/><path class="l" d="M416.95,680.08l.09-.03.037.09-.08,0Z" transform="translate(-416.95 -635.585)"/><path class="l" d="M525.98,687.267l.13-.057-.037.09Z" transform="translate(-511.926 -641.822)"/><path class="l" d="M565,690.1l.09.03-.045.057h-.079Z" transform="translate(-545.891 -644.339)"/><path class="l" d="M482.01,714.1l.09-.027.034.088h-.079Z" transform="translate(-473.624 -665.22)"/></g><g transform="translate(87.569 14.818)"><path class="f" d="M720.34,335.94l.179.009c.824.452,1.69.828,2.5,1.315.919.486,1.865.922,2.763,1.447.878.468,1.79.875,2.645,1.387l.019.107c-1.242-.59-2.44-1.275-3.668-1.9C723.3,337.506,721.779,336.8,720.34,335.94Z" transform="translate(-720.34 -335.94)"/><path class="f" d="M803.256,504.146c1.335-.678,2.642-1.423,3.993-2.066l.013.076c-1,.641-2.124,1.06-3.132,1.685-2.519,1.267-4.986,2.627-7.5,3.907l-.153-.032C798.723,506.5,801,505.342,803.256,504.146Z" transform="translate(-786.666 -480.665)"/></g><g transform="translate(27.759 14.957)"><path class="i" d="M259.148,337.02l.168.009c-.829.5-1.717.9-2.561,1.381a.879.879,0,0,1-.354.134l-.08-.031C257.23,337.962,258.216,337.536,259.148,337.02Z" transform="translate(-256.32 -337.02)"/></g><g transform="translate(25.093 16.472)"><path class="i" d="M238.267,348.77l.008.062a9.036,9.036,0,0,1-1.227.687,9.5,9.5,0,0,1-1.408.682l.023-.079C236.514,349.639,237.394,349.211,238.267,348.77Z" transform="translate(-235.64 -348.77)"/></g><g transform="translate(19.65 17.916)"><path class="m" d="M198.687,359.97l.153.044c-1.464.785-2.945,1.54-4.413,2.316a7.139,7.139,0,0,1-1.017.5l.159-.175C195.269,361.749,196.98,360.865,198.687,359.97Z" transform="translate(-193.41 -359.97)"/></g><g transform="translate(95.722 19.081)"><path class="e" d="M783.59,369.036l.143-.026c2.573,1.333,5.131,2.69,7.7,4.027l-.044.09c-.985-.454-1.921-1.011-2.9-1.487C786.865,370.758,785.2,369.951,783.59,369.036Z" transform="translate(-783.59 -369.01)"/></g><g transform="translate(5.636 20.873)"><path class="e" d="M98.3,382.926l.178-.015a2.14,2.14,0,0,1-.433.282c-4.459,2.3-8.886,4.674-13.355,6.959l.027-.11c.987-.588,2.043-1.053,3.054-1.6.706-.429,1.471-.753,2.191-1.155.428-.289.911-.477,1.364-.723C93.653,385.356,95.967,384.124,98.3,382.926Z" transform="translate(-84.69 -382.91)"/></g><g transform="translate(103.613 23.199)"><path class="e" d="M844.81,401l.079-.041c1.772.874,3.5,1.833,5.263,2.727l.008.128c-.962-.447-1.877-.986-2.824-1.459C846.493,401.9,845.627,401.495,844.81,401Z" transform="translate(-844.81 -400.96)"/></g><g transform="translate(108.978 26.039)"><path class="j" d="M886.43,423.013l.169-.023c.815.461,1.689.817,2.482,1.316l.009.106Q887.741,423.749,886.43,423.013Z" transform="translate(-886.43 -422.99)"/></g><g transform="translate(20.452 27.454)"><path class="j" d="M907.73,434.014l.128-.044c1.745.9,3.47,1.843,5.223,2.718l.036.143C911.3,435.934,909.51,434.98,907.73,434.014Z" transform="translate(-816.458 -433.97)"/><path class="j" d="M199.63,542.88c.6.259,1.16.6,1.744.892,2.205,1.17,4.44,2.29,6.629,3.491l-.17.015c-1.661-.843-3.289-1.744-4.956-2.575-1.04-.62-2.168-1.08-3.2-1.7Z" transform="translate(-199.63 -528.842)"/></g><g transform="translate(117.164 30.305)"><path class="d" d="M949.94,456.124l.094-.033.035.09Z" transform="translate(-949.94 -456.09)"/></g><g transform="translate(31.892 30.413)"><path class="n" d="M924.534,456.93a2.077,2.077,0,0,1,.879.4c0,.063.006.189.009.253-1.455.727-2.874,1.518-4.327,2.253-.169.054-.315.259-.505.17,1.554-.911,3.216-1.645,4.764-2.562C925.108,457.23,924.77,457.159,924.534,456.93Z" transform="translate(-839.102 -456.93)"/><path class="n" d="M288.39,613.016l.161-.026c.915.49,1.846.951,2.758,1.444l.032.119C290.336,614.086,289.358,613.556,288.39,613.016Z" transform="translate(-288.39 -592.874)"/></g><g transform="translate(0.529 31.091)"><path class="k" d="M45.07,462.19l.131.061-.094.031Z" transform="translate(-45.07 -462.19)"/></g><g transform="translate(0.707 31.174)"><path class="f" d="M46.45,462.83c.934.423,1.832.931,2.734,1.419l-.168.023c-.825-.455-1.695-.826-2.5-1.316Z" transform="translate(-46.45 -462.83)"/></g><g transform="translate(3.445 32.596)"><path class="e" d="M67.69,473.86c.686.3,1.33.69,2,1.023,1.213.674,2.489,1.239,3.67,1.964l-.179-.008c-.817-.447-1.674-.82-2.471-1.3-.993-.516-2-1-2.975-1.551Z" transform="translate(-67.69 -473.86)"/></g><g transform="translate(111.139 33.517)"><path class="o" d="M903.2,482.175a21.121,21.121,0,0,1,2.2-1.165v.119c-.656.361-1.335.679-2,1.031Z" transform="translate(-903.2 -481.01)"/></g><g transform="translate(88.957 34.702)"><path class="h" d="M902.065,490.2h.076l-.032.089-.089-.026Z" transform="translate(-879.99 -490.2)"/><path class="h" d="M731.141,603.09l.089.026-.045.058h-.075Z" transform="translate(-731.11 -588.539)"/></g><g transform="translate(108.249 34.789)"><path class="p" d="M880.78,492.281c.867-.5,1.765-.982,2.678-1.4-.062.171-.25.223-.384.318-.729.378-1.464.75-2.2,1.116Z" transform="translate(-880.78 -490.88)"/></g><g transform="translate(9.158 35.605)"><path class="q" d="M112.01,497.21l.124.057-.09.031Z" transform="translate(-112.01 -497.21)"/></g><g transform="translate(9.338 35.687)"><path class="h" d="M113.41,497.84c.593.229,1.129.58,1.7.856,1.239.665,2.507,1.279,3.726,1.979l-.152.019c-.714-.394-1.464-.722-2.164-1.142-1.009-.539-2.053-1.013-3.041-1.589Z" transform="translate(-113.41 -497.84)"/></g><g transform="translate(4.466 36.606)"><path class="r" d="M76.3,504.97a1.427,1.427,0,0,1,.848.4,4.194,4.194,0,0,1-.708-.3c-.048,3.515.032,7.034-.037,10.548a2.163,2.163,0,0,1-.8.187,2.128,2.128,0,0,1,.693-.232Q76.305,510.274,76.3,504.97Z" transform="translate(-75.61 -504.97)"/></g><g transform="translate(6.071 36.999)"><path class="s" d="M88.06,508.051l.092-.031.039.085-.084.008Z" transform="translate(-88.06 -508.02)"/></g><g transform="translate(6.314 37.126)"><path class="t" d="M89.95,509.024l.1-.014.024.1C90.042,509.087,89.981,509.045,89.95,509.024Z" transform="translate(-89.95 -509.01)"/></g><g transform="translate(6.57 37.26)"><path class="d" d="M91.93,510.063l.1-.013.026.1Z" transform="translate(-91.93 -510.05)"/></g><g transform="translate(6.827 37.396)"><path class="k" d="M93.93,511.113l.092-.013.021.094C94.015,511.173,93.958,511.134,93.93,511.113Z" transform="translate(-93.93 -511.1)"/></g><g transform="translate(6.988 37.512)"><path class="u" d="M95.18,512a2.617,2.617,0,0,1,1.007.521q.006,4.584,0,9.17a5.89,5.89,0,0,1,3.016,1.641,11.21,11.21,0,0,1-.918-.657,7.119,7.119,0,0,0-2.213-.922c-.036-3.07-.006-6.143-.014-9.214C95.785,512.329,95.442,512.232,95.18,512Z" transform="translate(-95.18 -512)"/></g><g transform="translate(14.793 38.534)"><path class="o" d="M155.73,519.93c.915.452,1.834.91,2.708,1.436l-.193-.01c-.82-.455-1.69-.822-2.49-1.313Z" transform="translate(-155.73 -519.93)"/></g><g transform="translate(94.661 41.881)"><path class="e" d="M775.36,547.32q1.323-.754,2.7-1.42l.01.131c-.844.424-1.683.861-2.524,1.292Z" transform="translate(-775.36 -545.9)"/></g><g transform="translate(89.253 43.309)"><path class="o" d="M733.4,559.8c1.787-.963,3.583-1.919,5.4-2.823-.066.226-.353.272-.525.4-1.44.7-2.823,1.5-4.259,2.2C733.814,559.665,733.637,559.871,733.4,559.8Z" transform="translate(-733.4 -556.98)"/></g><g transform="translate(86.547 46.132)"><path class="f" d="M712.41,580.3c.886-.5,1.79-.969,2.7-1.417l-.019.134c-.831.44-1.677.857-2.51,1.3Z" transform="translate(-712.41 -578.88)"/></g><g transform="translate(24.62 46.795)"><path class="v" d="M231.98,584.018a3.366,3.366,0,0,1,1.547.668l.026.1c-.5-.2-.953-.5-1.445-.717q-.017,10.864-.005,21.728a8.178,8.178,0,0,0,4.352,7.121c.914.467,1.882.819,2.819,1.235-.238.1-.447-.084-.659-.161a12.559,12.559,0,0,1-3.648-1.939,3.417,3.417,0,0,1-1.013-1.008A8.241,8.241,0,0,1,232.1,607.1c.046-.489-.171-.941-.134-1.428C231.978,598.454,231.966,591.235,231.98,584.018Z" transform="translate(-231.966 -584.018)"/></g><g transform="translate(91.633 46.792)"><path class="b" d="M751.884,585.045a12.618,12.618,0,0,1,2.14-1.045,19.66,19.66,0,0,1-2.154,1.161Z" transform="translate(-751.87 -584)"/></g><g transform="translate(90.276 46.769)"><path class="h" d="M744.881,583.82l.151.037q.014,10.818,0,21.635a8.272,8.272,0,0,1-3.512,6.793l-.183.034a9.789,9.789,0,0,0,1.986-1.937,8.024,8.024,0,0,0,1.579-5.011C744.89,598.187,744.937,591,744.881,583.82Z" transform="translate(-741.34 -583.82)"/></g><g transform="translate(3.886 47.441)"><path class="w" d="M71.107,589.294c-.014-.21.375-.291.539-.254C71.591,589.255,71.29,589.27,71.107,589.294Z" transform="translate(-71.107 -589.032)"/></g><g transform="translate(26.248 47.564)"><path class="f" d="M244.6,590.018l.151-.028c1.686.862,3.347,1.767,5.039,2.623.124.139.463.134.44.358C248.342,592.01,246.456,591.037,244.6,590.018Z" transform="translate(-244.6 -589.99)"/><path class="f" d="M311.44,625.076l.17-.016c2.565,1.313,5.1,2.685,7.667,4l.043.132c-.53-.2-1.008-.516-1.518-.76C315.685,627.3,313.54,626.232,311.44,625.076Z" transform="translate(-302.825 -620.54)"/></g><g transform="translate(83.848 47.553)"><path class="h" d="M691.47,591.314c.878-.5,1.772-.986,2.69-1.414l-.048.116c-.8.492-1.669.856-2.486,1.317Z" transform="translate(-691.47 -589.9)"/></g><g transform="translate(3.635 47.705)"><path class="h" d="M69.179,591.08l.089.005-.108.093Z" transform="translate(-69.16 -591.08)"/></g><g transform="translate(1.796 47.823)"><path class="n" d="M55.242,592.9a4.37,4.37,0,0,1,1.432-.9,12.744,12.744,0,0,0-1.774,1.368A.954.954,0,0,1,55.242,592.9Z" transform="translate(-54.9 -592)"/></g><g transform="translate(89.128 47.952)"><path class="j" d="M734.736,593l.151.023c-.8.461-1.616.9-2.457,1.283l.046-.137C733.227,593.775,733.987,593.4,734.736,593Z" transform="translate(-732.43 -593)"/></g><g transform="translate(11.073 48.86)"><path class="x" d="M126.87,600.06c.219-.061.308.022.269.244A.37.37,0,0,1,126.87,600.06Z" transform="translate(-126.87 -600.04)"/></g><g transform="translate(70.583 48.978)"><path class="o" d="M630.45,605.064c2.6-1.391,5.214-2.767,7.843-4.1l-.015.1c-.985.6-2.061,1.03-3.043,1.631-1.561.766-3.072,1.622-4.623,2.4Z" transform="translate(-625.051 -600.96)"/><path class="o" d="M588.56,635.769c1.765-.978,3.567-1.9,5.362-2.819l.024.121c-.99.525-2,1.017-2.99,1.533-.722.45-1.508.784-2.252,1.192Z" transform="translate(-588.56 -628.827)"/></g><g transform="translate(11.362 49.235)"><path class="y" d="M129.11,602.95c.208.005.479.348.5.561A.679.679,0,0,1,129.11,602.95Z" transform="translate(-129.11 -602.95)"/></g><g transform="translate(0 49.316)"><path class="q" d="M42.189,604.047c.122-.177.24-.394.452-.467a6.573,6.573,0,0,0-1.547,4.438,6.464,6.464,0,0,0,.267,1.866c-.241,0-.088-.313-.2-.443A6.545,6.545,0,0,1,42.189,604.047Z" transform="translate(-40.963 -603.58)"/></g><g transform="translate(86.448 49.354)"><path class="f" d="M713.55,604.085c.18-.072.333-.254.549-.2-.786.494-1.629.9-2.459,1.313.03-.186.237-.222.365-.316C712.514,604.6,713.036,604.351,713.55,604.085Z" transform="translate(-711.64 -603.873)"/></g><g transform="translate(11.86 49.842)"><path class="z" d="M132.978,607.687l.084-.027c.039.084.115.25.152.334A.275.275,0,0,1,132.978,607.687Z" transform="translate(-132.977 -607.66)"/></g><g transform="translate(12.113 50.207)"><path class="o" d="M134.94,610.49a1.552,1.552,0,0,1,.543,1.056C135.262,611.214,135.128,610.838,134.94,610.49Z" transform="translate(-134.94 -610.49)"/></g><g transform="translate(83.991 50.658)"><path class="n" d="M694.863,613.99l.173.018c-.79.461-1.609.875-2.426,1.282l-.03-.122C693.347,614.785,694.111,614.4,694.863,613.99Z" transform="translate(-692.58 -613.99)"/></g><g transform="translate(12.643 51.319)"><path class="u" d="M139.05,619.12l.1.018.021.228Z" transform="translate(-139.05 -619.12)"/></g><g transform="translate(12.767 51.704)"><path class="aa" d="M140.01,622.11l.1.006.01.251C140.091,622.3,140.037,622.174,140.01,622.11Z" transform="translate(-140.01 -622.11)"/></g><g transform="translate(39.932 51.681)"><path class="g" d="M350.76,621.93c1.814.914,3.612,1.861,5.4,2.824l-.177.022c-1.738-.9-3.472-1.806-5.2-2.73Z" transform="translate(-350.76 -621.93)"/></g><g transform="translate(78.324 51.943)"><path class="i" d="M648.61,626.816c1.85-.923,3.663-1.913,5.5-2.856l.159.033c-1.87,1-3.742,1.989-5.631,2.945Z" transform="translate(-648.61 -623.96)"/></g><g transform="translate(12.757 52.023)"><path class="e" d="M140.058,624.58c.214.137.111.424.175.633a5.661,5.661,0,0,1-.108,2.506c-.088.134.026.44-.195.446A7.783,7.783,0,0,0,140.058,624.58Z" transform="translate(-139.93 -624.58)"/></g><g transform="translate(75.633 54.906)"><path class="o" d="M627.768,648.271c.8-.5,1.674-.856,2.492-1.321l.159.035c-.884.481-1.77.965-2.678,1.4Z" transform="translate(-627.74 -646.95)"/></g><g transform="translate(0.353 55.676)"><path class="ab" d="M43.757,652.92c.027.063.082.188.111.251l-.168-.144Z" transform="translate(-43.7 -652.92)"/></g><g transform="translate(12.5 55.65)"><path class="ac" d="M137.94,653.278c.009-.2.039-.469.245-.558C138.234,652.882,138.132,653.282,137.94,653.278Z" transform="translate(-137.94 -652.72)"/></g><g transform="translate(62.681 55.944)"><path class="o" d="M528.56,658.4c2.189-1.121,4.345-2.307,6.545-3.4l-.023.1c-.95.575-1.988,1-2.935,1.575-1.583.78-3.12,1.645-4.7,2.439l-.2.013A13.108,13.108,0,0,1,528.56,658.4Z" transform="translate(-527.25 -655)"/></g><g transform="translate(0.517 55.985)"><path class="v" d="M44.97,655.32c.192.335.345.691.53,1.031A1.337,1.337,0,0,1,44.97,655.32Z" transform="translate(-44.97 -655.32)"/></g><g transform="translate(48.292 56.056)"><path class="ad" d="M415.62,655.87c.835.414,1.678.828,2.474,1.313-.219.039-.382-.121-.565-.2-.625-.33-1.273-.619-1.874-.993Z" transform="translate(-415.62 -655.87)"/></g><g transform="translate(42.801 56.208)"><path class="ae" d="M373.02,657.08l.092-.03.035.088-.08,0Z" transform="translate(-373.02 -657.05)"/></g><g transform="translate(12.418 56.337)"><path class="w" d="M137.3,658.09l.076-.04.018.1-.09.032Z" transform="translate(-137.3 -658.05)"/></g><g transform="translate(51.358 56.331)"><path class="k" d="M574.11,658l.153.019c-.748.446-1.535.82-2.3,1.235-1.869.949-3.7,1.982-5.584,2.889.025-.2.253-.232.394-.321C569.238,660.58,571.653,659.254,574.11,658Z" transform="translate(-550.014 -658)"/><path class="k" d="M439.41,692.007l.166-.017c1.629.837,3.235,1.717,4.876,2.532.139.088.369.113.391.317a3.8,3.8,0,0,1-.584-.267C442.647,693.709,441,692.9,439.41,692.007Z" transform="translate(-439.41 -687.609)"/></g><g transform="translate(12.282 56.591)"><path class="u" d="M136.25,660.144l.077-.124.018.094Z" transform="translate(-136.25 -660.02)"/></g><g transform="translate(10.505 56.761)"><path class="af" d="M123.514,662.282c.277-.284.437-.655.708-.942a5.045,5.045,0,0,1-1.611,1.979l-.151.031C122.8,662.986,123.2,662.672,123.514,662.282Z" transform="translate(-122.46 -661.34)"/></g><g transform="translate(1.059 57.033)"><path class="w" d="M49.18,663.45a9.459,9.459,0,0,0,2.381,2.274,5.355,5.355,0,0,1-1.942-1.531C49.471,663.948,49.208,663.748,49.18,663.45Z" transform="translate(-49.18 -663.45)"/></g><g transform="translate(50.802 57.391)"><path class="k" d="M435.09,666.231h.075l.048.055-.088.031Z" transform="translate(-435.09 -666.23)"/></g><g transform="translate(45.699 57.752)"><path class="p" d="M395.5,669.051l.177-.021c.829.445,1.678.849,2.508,1.293l.021.131C397.284,670.028,396.391,669.538,395.5,669.051Z" transform="translate(-395.5 -669.03)"/></g><g transform="translate(9.718 58.786)"><path class="ag" d="M116.36,677.545a3.568,3.568,0,0,1,.763-.495A1.072,1.072,0,0,1,116.36,677.545Z" transform="translate(-116.36 -677.05)"/></g><g transform="translate(53.76 58.934)"><path class="d" d="M458.04,678.2l.126.058-.093.032Z" transform="translate(-458.04 -678.2)"/></g><g transform="translate(3.511 59.283)"><path class="ah" d="M68.2,680.92c.166-.086.379.229.142.28C68.307,681.13,68.236,680.989,68.2,680.92Z" transform="translate(-68.2 -680.905)"/></g><g transform="translate(9.405 59.289)"><path class="ai" d="M113.93,681.1l.285-.153-.151.248a3.718,3.718,0,0,1,.263.893A3.145,3.145,0,0,1,113.93,681.1Z" transform="translate(-113.93 -680.95)"/></g><g transform="translate(48.649 59.287)"><path class="j" d="M418.39,680.938c.266-.009.468.193.7.287.65.356,1.341.637,1.962,1.039l.044.115A29.252,29.252,0,0,1,418.39,680.938Z" transform="translate(-418.39 -680.938)"/></g><g transform="translate(3.488 59.697)"><path class="af" d="M68.039,684.142l.1-.022-.124.259C68.025,684.32,68.034,684.2,68.039,684.142Z" transform="translate(-68.02 -684.12)"/></g><g transform="translate(3.211 60.079)"><path class="ab" d="M65.883,687.746c-.055-.188.075-.639.266-.666C66.134,687.308,66.1,687.616,65.883,687.746Z" transform="translate(-65.87 -687.08)"/></g><g transform="translate(56.668 60.176)"><path class="j" d="M483.624,689.253c.932-.461,1.825-1,2.775-1.423l-.046.143c-.842.452-1.708.861-2.551,1.313-.2.121-.427.3-.672.237-.837-.446-1.686-.866-2.53-1.3l.024-.13c.829.394,1.632.843,2.445,1.268C483.26,689.484,483.458,689.339,483.624,689.253Z" transform="translate(-480.6 -687.83)"/></g><g transform="translate(9.797 60.48)"><path class="n" d="M116.97,690.19l.1.009.005.244Z" transform="translate(-116.97 -690.19)"/></g><g transform="translate(3.097 60.863)"><path class="af" d="M65.014,693.174l.1-.014-.128.254C65,693.353,65.008,693.235,65.014,693.174Z" transform="translate(-64.99 -693.16)"/></g><g transform="translate(9.918 60.797)"><path class="l" d="M117.91,692.65l.089.018a13.362,13.362,0,0,1,.549,2.18C118.311,694.125,118.081,693.391,117.91,692.65Z" transform="translate(-117.91 -692.65)"/></g><g transform="translate(2.997 61.242)"><path class="d" d="M64.213,696.113l.1-.013c-.026.064-.079.193-.1.259C64.21,696.3,64.213,696.173,64.213,696.113Z" transform="translate(-64.21 -696.1)"/></g><g transform="translate(2.59 61.557)"><path class="d" d="M61.362,698.6l.086-.045a9.686,9.686,0,0,1-.389,1.429A5,5,0,0,1,61.362,698.6Z" transform="translate(-61.053 -698.55)"/></g><g transform="translate(1.947 62.988)"><path class="ag" d="M56.622,709.662l.1-.012c-.14.838-.421,1.646-.55,2.488l-.1.233A20.441,20.441,0,0,1,56.622,709.662Z" transform="translate(-56.07 -709.65)"/></g><g transform="translate(10.556 62.995)"><path class="af" d="M122.86,709.7c.236.129.139.594.3.839l-.037.189A4.321,4.321,0,0,1,122.86,709.7Z" transform="translate(-122.86 -709.7)"/></g><g transform="translate(59.63 63.287)"><path class="k" d="M503.633,713.29c.8-.5,1.669-.856,2.485-1.32l.174.027c-.9.465-1.776,1.005-2.712,1.384Z" transform="translate(-503.58 -711.97)"/></g><g transform="translate(57.022 63.666)"><path class="n" d="M483.35,714.914c.206-.023.363.13.541.209.572.3,1.152.585,1.722.893l.335-.037a.4.4,0,0,1-.538.07C484.732,715.656,483.991,715.366,483.35,714.914Z" transform="translate(-483.35 -714.912)"/></g><g transform="translate(1.027 64.028)"><path class="aa" d="M58.726,717.728l.085-.008c.339,1.624.691,3.246.87,4.894.119.568.086,1.155.211,1.726-.032.819.155,1.624.135,2.443a43.607,43.607,0,0,1-.147,5.01c-3.6.028-7.195.01-10.791.009a44.588,44.588,0,0,1-.15-5.412,50.63,50.63,0,0,1,.844-7.02l.062.065a45.378,45.378,0,0,0-.786,7.214,24.777,24.777,0,0,0,.009,3.346,6.876,6.876,0,0,0,.1,1.685c3.534-.01,7.069,0,10.6-.006a11.929,11.929,0,0,0,.13-2.446,14.7,14.7,0,0,0,.009-1.936,18.036,18.036,0,0,0-.12-2.573A46.367,46.367,0,0,0,58.726,717.728Z" transform="translate(-48.932 -717.72)"/></g><g transform="translate(89.678 75.274)"><path class="e" d="M736.7,805.328a1.406,1.406,0,0,1,.584-.358C737.359,805.2,736.884,805.421,736.7,805.328Z" transform="translate(-736.7 -804.97)"/></g><g transform="translate(87.309 75.647)"><path class="i" d="M718.32,808.887c.785-.335,1.566-.681,2.346-1.027l-.028.138c-.55.236-1.086.5-1.646.719C718.774,808.789,718.561,808.985,718.32,808.887Z" transform="translate(-718.32 -807.86)"/></g><g transform="translate(35.766 76.676)"><path class="aj" d="M346.744,821.181a74.054,74.054,0,0,0,23.236-5.341l.022.125a85.385,85.385,0,0,1-8.954,2.983,74.308,74.308,0,0,1-11.09,2.07c-.563.014-1.112.177-1.678.135a10.046,10.046,0,0,1-1.936.131,14.992,14.992,0,0,1-2.568.121c-1.633,0-3.265,0-4.9,0-.651,0-1.288-.164-1.937-.125a73.51,73.51,0,0,1-18.2-3.586c-.076-.014-.228-.043-.3-.058l.049-.108a76.88,76.88,0,0,0,15.888,3.431c1.709.153,3.425.335,5.148.322a37.94,37.94,0,0,0,4.125.048C344.678,821.209,345.72,821.348,346.744,821.181Z" transform="translate(-318.44 -815.84)"/></g><g transform="translate(31.927 76.935)"><path class="j" d="M288.66,817.85c1.285.478,2.573.955,3.864,1.419-.26.1-.49-.1-.728-.16-1.06-.333-2.08-.772-3.13-1.134Z" transform="translate(-288.66 -817.85)"/></g></g></svg>