<svg xmlns="http://www.w3.org/2000/svg" width="149.626" height="84.867" viewBox="0 0 149.626 84.867"><defs><style>.a{fill:#fff;}</style></defs><g transform="translate(-57.362 -173.534)"><path class="a" d="M383.174,174.26c3.173-1.4,6.851-.607,9.809.962a23.689,23.689,0,0,1,10.141,12.165c-17.5,6.725-35.064,13.3-52.811,19.352a13.863,13.863,0,0,0-3.86-.724,28.581,28.581,0,0,0-8.333-11.807C353.586,188.616,368.334,181.29,383.174,174.26Z" transform="translate(-202.278)"/><path class="a" d="M390.46,245c18.072-6.577,36.107-13.255,54.17-19.861,1.456,4.207,2.611,8.618,2.292,13.11a26.875,26.875,0,0,1-3.754,11.458,5.187,5.187,0,0,1-3.508,2.672c-14.686,3.279-29.471,6.247-43.9,10.572A13.662,13.662,0,0,0,390.46,245Z" transform="translate(-239.987 -37.18)"/><path class="a" d="M291,249.17c2.868-1,5.792-1.828,8.663-2.82,4.716,2.639,8.059,7.212,10.15,12.112a14.674,14.674,0,0,0-8.132,4.008,20.861,20.861,0,0,0-7.927-10.415,24.84,24.84,0,0,0-3.662-1.85C290.288,249.783,290.49,249.285,291,249.17Z" transform="translate(-167.673 -52.462)"/><path class="a" d="M86.486,273.328c11.567-2.591,23.114-5.3,34.511-8.568,1.154.808,2.544,1.174,3.721,1.945a19.229,19.229,0,0,1,7.913,10.832c-1.5.657-3.094,1.045-4.635,1.585q-19.48,6.252-39.226,11.645a2.13,2.13,0,0,0-.048,1.509,37.588,37.588,0,0,1,1.733,15.855c-.548,4.2-2.656,8.4-6.356,10.644a11.107,11.107,0,0,1-9.524,1.118,21.055,21.055,0,0,1-9.054-6.287,35.57,35.57,0,0,1-7.626-15.3c-.813-4.324-.853-9.009,1-13.085,1.171-2.544,3.346-4.861,6.186-5.412a9.7,9.7,0,0,1,6.994,1.515,20.073,20.073,0,0,1,5.892,5.884c-3.382,1.121-6.885,1.9-10.18,3.268a4.592,4.592,0,0,0-2.7,2.566,9.827,9.827,0,0,0,.33,7.248,16.558,16.558,0,0,0,6.72,8.383,7.324,7.324,0,0,0,7.88-.157,9.91,9.91,0,0,0,3.612-6.373c.769-4.3-.377-8.7-2.242-12.573-2.236-4.623-5.753-8.981-10.647-10.9a13.6,13.6,0,0,0-5.5-.772C72.344,276.511,79.405,274.873,86.486,273.328Z" transform="translate(0 -65.726)"/><path class="a" d="M334.235,296.708a11.29,11.29,0,0,1,5.943.587,11.649,11.649,0,0,1-.716,22.058,11.472,11.472,0,0,1-7.645-.3,11.679,11.679,0,0,1-7.271-9.238,11.8,11.8,0,0,1,.853-6.211,11.63,11.63,0,0,1,8.836-6.893m1.129,5.157a6.234,6.234,0,0,0-.553,12.229,6.149,6.149,0,0,0,4.735-.791,6.192,6.192,0,0,0,.1-10.46A6.124,6.124,0,0,0,335.364,301.865Z" transform="translate(-192.441 -88.614)"/><path class="a" d="M155.492,331.466c13.58-3.79,27.117-7.735,40.515-12.126a13.772,13.772,0,0,0,2.158,14.13,35.151,35.151,0,0,1-2,6.331c-11.285,4.758-22.443,9.8-33.63,14.773-5.023,2.158-9.932,4.6-15.1,6.393a15.158,15.158,0,0,0,8.749-9.333C158.351,345.09,157.334,337.962,155.492,331.466Z" transform="translate(-64.891 -105.049)"/><path class="a" d="M106.051,351.763c2.547-.861,5.127-1.621,7.687-2.443a15.644,15.644,0,0,1,2.941,6.53c-2.356.648-4.663,1.459-7.025,2.088a11.076,11.076,0,0,0-2.742-4.833C106.594,352.683,105.948,352.367,106.051,351.763Z" transform="translate(-35.071 -126.649)"/><path class="a" d="M90.247,363.9a2.178,2.178,0,0,1,3.111-.442c1.954,1.395,2.7,3.8,3.514,5.951.159.075.475.224.632.3,2.535-.766,5.043-1.627,7.57-2.424a12.709,12.709,0,0,1-1.051,8.165,5.615,5.615,0,0,1-4.333,3.231,7.322,7.322,0,0,1-5.275-2.055,16.341,16.341,0,0,1-4.6-7.4C89.347,367.5,89.187,365.455,90.247,363.9Z" transform="translate(-23.121 -136.505)"/><path class="a" d="M374.99,370.967a14.034,14.034,0,0,0,8.872-5.937c3.81,3.953,7.517,8.014,10.938,12.31a15.073,15.073,0,0,1,2.421,3.941c-2.935-.895-5.568-2.552-8.288-3.944a75.3,75.3,0,0,1,1.744,10.155C385.43,382,380.516,376.189,374.99,370.967Z" transform="translate(-228.841 -137.967)"/><path class="a" d="M305.526,395.229c2.292-6.725,4.665-13.426,7.019-20.129a14.05,14.05,0,0,0,11.078,3.187c-2.9,7.505-5.465,15.136-8.456,22.605a9.1,9.1,0,0,1-1.487,2.731,3.485,3.485,0,0,1-.9-1.708,45.081,45.081,0,0,1-.665-9.361c-1.515,1.56-2.871,3.27-4.45,4.772-1.073.992-2.01,2.281-3.475,2.709A26.882,26.882,0,0,1,305.526,395.229Z" transform="translate(-177.832 -145.222)"/></g></svg>