<svg xmlns="http://www.w3.org/2000/svg" width="94.426" height="81.939" viewBox="0 0 94.426 81.939"><defs><style>.a{fill:#fbfbfb;}</style></defs><path class="a" d="M84.278,74.545a7.4,7.4,0,0,1,2.958-.506,108.145,108.145,0,0,1,13.527.085,5.71,5.71,0,0,1,5,5.407c.018,7.252,0,14.5.009,21.757a82.356,82.356,0,0,0,5.41-18.064,42.178,42.178,0,0,1,23.5,30.538c1.05,5.529.576,11.179.686,16.766,2.256,1.66,4.467,3.806,5.034,6.662a7.361,7.361,0,0,1-1.649,5.99,22.135,22.135,0,0,1-7.931,5.808,72.4,72.4,0,0,1-19.387,5.49,122.732,122.732,0,0,1-40.4-.729,69.87,69.87,0,0,1-13.19-3.873,30.664,30.664,0,0,1-7.234-4.024,11.734,11.734,0,0,1-4.175-5.349,6.965,6.965,0,0,1,.713-5.715,15.091,15.091,0,0,1,4.076-4.3c.014-3.342-.018-6.687.016-10.03A42.121,42.121,0,0,1,75.413,83.18a82.417,82.417,0,0,0,5.407,18.086q.017-10.763,0-21.523a5.7,5.7,0,0,1,3.455-5.2M57.529,142c5.281,3.1,11.249,4.78,17.211,5.988a104.407,104.407,0,0,0,25.516,1.455,88.933,88.933,0,0,0,15.131-2.2,48.334,48.334,0,0,0,13.631-5.254c-2.767.63-5.565,1.109-8.379,1.467a241.528,241.528,0,0,1-40.829,1.21A144.221,144.221,0,0,1,57.529,142Z" transform="translate(-46.11 -73.867)"/></svg>