<svg xmlns="http://www.w3.org/2000/svg" width="56.539" height="39.335" viewBox="0 0 56.539 39.335"><defs><style>.a,.w{opacity:0.61;}.aa,.ab,.ac,.ad,.ae,.af,.ag,.ah,.ai,.aj,.b,.c,.d,.e,.f,.g,.h,.i,.j,.k,.l,.m,.n,.o,.p,.q,.r,.s,.t,.u,.v,.w,.x,.y,.z{fill:#fbfbfb;}.b{opacity:0.33;}.d{opacity:0.49;}.e{opacity:0.42;}.f{opacity:0.4;}.g{opacity:0.39;}.h{opacity:0.45;}.i{opacity:0.44;}.j{opacity:0.41;}.k{opacity:0.43;}.l{opacity:0.51;}.m{opacity:0.46;}.n{opacity:0.47;}.o{opacity:0.38;}.p{opacity:0.37;}.q{opacity:0.48;}.r{opacity:0.75;}.s{opacity:0.56;}.t{opacity:0.54;}.u{opacity:0.6;}.v{opacity:0.35;}.x{opacity:0.13;}.y{opacity:0.67;}.z{opacity:0.74;}.aa{opacity:0.57;}.ab{opacity:0.58;}.ac{opacity:0.69;}.ad{opacity:0.36;}.ae{opacity:0.53;}.af{opacity:0.55;}.ag{opacity:0.62;}.ah{opacity:0.76;}.ai{opacity:0.72;}.aj{opacity:0.52;}</style></defs><g class="a" transform="translate(-40.963 -220.977)"><g transform="translate(68.981 220.977)"><path class="b" d="M495.44,221.169a.416.416,0,0,1,.585-.118c.15.1.375.144.461.305-.242-.1-.465-.243-.7-.354A2.156,2.156,0,0,1,495.44,221.169Z" transform="translate(-495.44 -220.977)"/></g><g transform="translate(41.019 221.002)"><path class="c" d="M71.972,221.537a2.154,2.154,0,0,0,.343-.167c.237.111.461.252.7.354h0c.418.243.851.461,1.284.676l.017.007c.385.215.772.43,1.175.611l.027.012.022.028h.037l.023.012c.416.255.855.472,1.292.688l0,0q1.22.664,2.462,1.288l.015.008c.885.494,1.8.942,2.688,1.423l.031-.012a11.31,11.31,0,0,0,1.152.621l.007,0c.423.237.853.466,1.291.674l.007,0c.386.215.772.434,1.177.612l.026.01.022.029h.038l.022.012c.688.409,1.417.749,2.121,1.132.588.3,1.16.625,1.755.907l.024.011c.769.438,1.566.824,2.345,1.245.466.228.914.494,1.385.711l.044.02c.391.236.805.431,1.208.648.453.226.891.484,1.351.7l.007,0q.626.35,1.272.669l.041.018c.851.462,1.708.919,2.576,1.348l.026.011.062.027.015.009c.113.11.274.144.392.247-.74.439-1.535.79-2.279,1.226l-.019.012a10.1,10.1,0,0,0-1.053.557l-.015.009h-.036l-.022.03-.028.012c-.437.2-.866.429-1.281.67l-.046.02c-.646.308-1.271.664-1.91.988-1.079.572-2.168,1.124-3.241,1.707l-.013.006q-.656.317-1.289.679l0,0c-.869.432-1.728.89-2.582,1.35h0c-.437.214-.87.438-1.293.678l0,0c-.439.2-.867.436-1.287.676l-.01.006c-1.258.639-2.507,1.3-3.751,1.963l-.018.009c-.859.441-1.721.88-2.565,1.348l-.023.011c-1.052.523-2.084,1.091-3.131,1.627a6.271,6.271,0,0,0-.626.349l-.016.01-.062.027-.024.011c-.454.2-.882.46-1.327.681-.08.041-.174.11-.265.054-.389-.2-.773-.418-1.169-.607l-.018-.009c-.427-.235-.856-.471-1.3-.674l-.026-.011-.06-.028-.02-.01a13.852,13.852,0,0,0-1.313-.69l-.023-.01-.023-.027h-.036l-.017-.011c-.38-.232-.784-.43-1.183-.628l0,0c-.464-.256-.933-.5-1.407-.737l0,0c-.855-.461-1.715-.914-2.582-1.351l-.012-.006q-1.277-.7-2.58-1.348l-.018-.01c-.665-.376-1.353-.711-2.025-1.073-.222-.11-.434-.241-.664-.334l-.013-.007c-1.047-.574-2.116-1.11-3.171-1.669-.279-.14-.547-.3-.834-.427h0c-.427-.238-.858-.478-1.3-.677L52.4,240.5l-.022-.03h-.038l-.018-.01c-.418-.252-.858-.47-1.3-.687l-.014-.006c-.583-.335-1.19-.628-1.782-.946-.273-.132-.53-.3-.813-.409l-.027-.012-.059-.027-.02-.01c-.565-.347-1.175-.617-1.755-.94-.321-.16-.629-.345-.957-.489h0c-.432-.234-.861-.477-1.308-.679l-.022-.01-.063-.029-.057,0c0-.027,0-.081,0-.109.83-.431,1.665-.853,2.483-1.305l.012-.007c2.137-1.093,4.255-2.226,6.387-3.328a1.022,1.022,0,0,0,.207-.135l.02-.007.062-.03.026-.011a3.412,3.412,0,0,0,.486-.238c.7-.371,1.411-.732,2.111-1.108l.006-.027a4.541,4.541,0,0,0,.673-.326,4.316,4.316,0,0,0,.587-.329l.053-.025a.421.421,0,0,0,.17-.064c.4-.229.829-.419,1.225-.66h0q1.247-.618,2.469-1.29h0c.518-.248,1.027-.519,1.531-.8l.019-.01c.391-.191.779-.391,1.157-.609h0c.523-.243,1.027-.53,1.538-.8l.021-.01c.589-.294,1.166-.611,1.752-.909.232-.134.484-.235.7-.39l.019-.01.06-.03.028-.012c.779-.371,1.533-.8,2.3-1.187.528-.292,1.079-.542,1.594-.856l.022-.013h.038l.02-.031Z" transform="translate(-44.01 -221.37)"/><path class="c" d="M44.354,505.8a2.01,2.01,0,0,0,.338.142l.03.009.022.03.04,0,.054.027.058.041.064.023.058.04.065.025.054.039.023.01c.125.111.289.157.421.258,0,1.469-.01,2.938.007,4.407a3.406,3.406,0,0,1,1.059.441,5.368,5.368,0,0,0,.439.314l.028.017a.177.177,0,0,0,.129.117l.009.054a.325.325,0,0,0,.237.268v.035a.131.131,0,0,0,.113.147l.008.015c.09.166.154.346.26.5l-.006.027.059.118v.067c.013.031.039.093.052.123l0,.029a3.723,3.723,0,0,1-.061,1.714l-.006.02c-.1.043-.113.173-.117.267l0,.062-.036.019,0,.042-.03.06-.037.059-.007.022c-.129.137-.206.315-.338.451-.152.186-.34.337-.5.51l-.011.007a1.707,1.707,0,0,0-.365.237l-.014,0-.136.073a1.5,1.5,0,0,0,.19.472l0,.024.052.121.006.031c.082.354.192.705.305,1.051h0a2.068,2.068,0,0,0,.125.492v.006a22.175,22.175,0,0,1,.51,3.343,8.627,8.627,0,0,1,.057,1.231,7.032,7.032,0,0,1,0,.926,5.705,5.705,0,0,1-.062,1.17c-1.69,0-3.381,0-5.071,0a3.288,3.288,0,0,1-.048-.806,11.85,11.85,0,0,1,0-1.6,21.7,21.7,0,0,1,.376-3.451l0-.016.047-.112c.062-.4.2-.789.263-1.19h0a4.633,4.633,0,0,0,.186-.684l.006-.027.05-.124,0-.06.061-.121v-.056c.1-.062.12-.21.127-.319v-.059l.059-.124.02-.057c.113-.024.012-.175-.068-.134l-.034,0a4.524,4.524,0,0,1-1.139-1.088l-.006-.008c-.088-.163-.162-.333-.253-.493l0-.028-.053-.12,0-.026a3.092,3.092,0,0,1-.128-.893,3.144,3.144,0,0,1,.74-2.123l.056-.06a6.1,6.1,0,0,1,.848-.654l.031-.01.052-.044.068,0c.088-.012.231-.019.258-.121h.02a1.034,1.034,0,0,0,.381-.089C44.37,509.164,44.331,507.481,44.354,505.8Z" transform="translate(-41.876 -488.265)"/><path class="c" d="M266.03,583.831l.014-.011c.027,3.435,0,6.871.012,10.307a3.838,3.838,0,0,1-.755,2.4,4.685,4.685,0,0,1-.95.927l-.007,0a.672.672,0,0,0-.279.171l-.011.007c-.373.166-.747.331-1.122.491h0a35.419,35.419,0,0,1-11.113,2.555c-.49.08-.988.013-1.48.069a18.151,18.151,0,0,1-1.973-.023c-.824.006-1.645-.081-2.462-.154a36.773,36.773,0,0,1-7.6-1.641l-.011,0c-.618-.222-1.234-.45-1.848-.679h0c-.448-.2-.911-.367-1.348-.591a3.911,3.911,0,0,1-2.081-3.406q0-5.2,0-10.392c.236.1.451.248.691.343l.02.012c.888.487,1.79.952,2.692,1.412l.007,0c.463.258.931.512,1.412.735l.009,0c1,.553,2.03,1.065,3.042,1.6.244.117.473.266.726.364l.028.012.022.03.038,0,.019.014a14.47,14.47,0,0,0,1.29.684l.017.009c.426.233.853.467,1.294.671l.028.012.023.031.038,0,.028.012a14,14,0,0,0,1.3.689h0c.763.428,1.548.814,2.319,1.227a1.811,1.811,0,0,0,.279.128l.028.012.022.03h.038l.023.011c.306.216.661.355.986.542a.19.19,0,0,0,.257-.033l0-.017c.448-.181.867-.44,1.3-.662l.006,0c.824-.43,1.661-.842,2.465-1.306l.017-.012h.038l.022-.027.028-.012c.9-.433,1.777-.928,2.671-1.382.366-.2.742-.377,1.1-.591l.012-.006c.435-.206.858-.438,1.281-.668l.02-.009c.9-.457,1.8-.933,2.693-1.409l.017-.009c.391-.195.782-.393,1.16-.613h0c.4-.2.8-.392,1.176-.628l.024-.012h.036l.022-.028.024-.01c.4-.182.793-.393,1.175-.613l.023-.01A9.381,9.381,0,0,0,266.03,583.831Z" transform="translate(-221.229 -561.475)"/></g><g transform="translate(49.351 221.169)"><path class="d" d="M494.064,224.09l.044.011-.02.031h-.038Z" transform="translate(-474.506 -224.09)"/><path class="d" d="M429.055,258.1l.045.014-.06.03Z" transform="translate(-413.504 -256.003)"/><path class="d" d="M192.007,382.09l.045.014-.062.03Z" transform="translate(-191.068 -372.349)"/><path class="d" d="M177.03,531.231h.038l.022.03-.044.013Z" transform="translate(-177.03 -512.295)"/></g><g transform="translate(57.466 221.224)"><path class="e" d="M434.282,224.981h.086c-.515.313-1.067.564-1.594.856-.771.391-1.525.816-2.3,1.187l.012-.063C431.756,226.313,433.014,225.638,434.282,224.981Z" transform="translate(-422.96 -224.98)"/><path class="e" d="M308.661,599.96q1.3.653,2.58,1.348l-.078.012c-.78-.4-1.545-.822-2.33-1.21C308.778,600.062,308.631,600.062,308.661,599.96Z" transform="translate(-308.657 -576.843)"/></g><g transform="translate(65.342 221.345)"><path class="f" d="M512.41,226.952l.078-.012c.4.218.81.407,1.2.634l0,.054C513.261,227.413,512.828,227.195,512.41,226.952Z" transform="translate(-507.725 -226.94)"/><path class="f" d="M659.64,304.022l.067,0c.357.194.725.366,1.082.559l0,.064A11.3,11.3,0,0,1,659.64,304.022Z" transform="translate(-645.879 -299.268)"/><path class="f" d="M436.42,666.83a13.866,13.866,0,0,1,1.313.69h-.085c-.4-.21-.805-.412-1.206-.62Z" transform="translate(-436.42 -639.711)"/></g><g transform="translate(71.327 222.029)"><path class="g" d="M533.5,238.05l.079-.01c.356.188.719.365,1.075.554l.022.067C534.272,238.48,533.885,238.264,533.5,238.05Z" transform="translate(-533.5 -238.04)"/></g><g transform="translate(72.529 222.648)"><path class="d" d="M553,248.094l.043-.014.016.041h-.037Z" transform="translate(-553 -248.08)"/></g><g transform="translate(62.649 222.701)"><path class="g" d="M554.33,248.94a9.5,9.5,0,0,1,1.279.631l.014.057C555.185,249.412,554.745,249.195,554.33,248.94Z" transform="translate(-544.368 -248.94)"/><path class="g" d="M392.73,643.88c.475.234.944.481,1.407.737l-.076.012c-.436-.233-.885-.443-1.313-.69Z" transform="translate(-392.73 -619.532)"/></g><g transform="translate(49.439 223.32)"><path class="h" d="M390.933,258.982l.085,0c-.22.155-.472.255-.7.39-.586.3-1.163.615-1.752.909l-.022-.057C389.346,259.826,390.132,259.389,390.933,258.982Z" transform="translate(-375.588 -258.98)"/><path class="h" d="M178.45,531.89c.447.2.877.439,1.3.677l-.081.01c-.4-.219-.805-.413-1.205-.625Z" transform="translate(-178.45 -515.065)"/><path class="h" d="M374.31,657.95l.083,0c.4.211.806.414,1.208.623v.059A14.469,14.469,0,0,1,374.31,657.95Z" transform="translate(-362.235 -633.354)"/><path class="h" d="M459.44,678.83c.442.2.87.439,1.3.674l-.068.016q-.6-.317-1.211-.624Z" transform="translate(-442.117 -652.947)"/></g><g transform="translate(73.907 223.385)"><path class="g" d="M575.35,260.037l.088-.007c.725.367,1.435.764,2.163,1.125.067.059.2.071.212.17Q576.571,260.7,575.35,260.037Z" transform="translate(-575.35 -260.03)"/></g><g transform="translate(60.853 224.614)"><path class="i" d="M363.62,280.715c.47-.27.964-.494,1.44-.755l.078.015c-.511.268-1.015.555-1.538.8Z" transform="translate(-363.6 -279.96)"/><path class="i" d="M526.895,691c.086-.036.16-.117.261-.1-.8.464-1.641.876-2.465,1.306v-.064C525.432,691.777,526.155,691.374,526.895,691Z" transform="translate(-514.759 -665.566)"/></g><g transform="translate(76.384 224.676)"><path class="j" d="M615.53,280.992l.073-.012q1.309.68,2.613,1.369v.066C617.325,281.934,616.415,281.486,615.53,280.992Z" transform="translate(-615.53 -280.98)"/></g><g transform="translate(59.679 225.417)"><path class="e" d="M345.484,293.091c.083-.03.152-.124.25-.083-.377.218-.766.418-1.157.609l-.017-.055C344.868,293.406,345.174,293.245,345.484,293.091Z" transform="translate(-344.56 -292.997)"/></g><g transform="translate(58.146 226.033)"><path class="e" d="M319.906,303.635c.4-.242.829-.429,1.238-.655l.076.014c-.5.277-1.012.548-1.531.8C319.7,303.683,319.837,303.688,319.906,303.635Z" transform="translate(-319.69 -302.98)"/></g><g transform="translate(41.086 226.71)"><path class="i" d="M678.45,313.984l.074-.014c.4.213.806.418,1.211.624l.006.064C679.3,314.45,678.873,314.222,678.45,313.984Z" transform="translate(-639.273 -313.97)"/><path class="i" d="M45.448,439l.072.012c-.818.453-1.653.874-2.483,1.305,0,.027,0,.081,0,.108l-.073-.009c0-.03,0-.09,0-.12C43.79,439.868,44.617,439.428,45.448,439Z" transform="translate(-42.96 -431.292)"/></g><g transform="translate(54.762 226.836)"><path class="k" d="M281.991,316.01l.078.008q-1.22.67-2.469,1.29c.043-.107.174-.131.261-.194C280.58,316.763,281.276,316.371,281.991,316.01Z" transform="translate(-278.688 -316.01)"/><path class="k" d="M264.8,576.99c.23.092.442.223.664.333.673.362,1.361.7,2.025,1.073l-.068.016c-.82-.423-1.63-.864-2.455-1.276C264.909,577.092,264.81,577.074,264.8,576.99Z" transform="translate(-264.8 -560.901)"/></g><g transform="translate(81.561 227.391)"><path class="e" d="M699.51,325.022l.073-.012c.356.193.724.364,1.079.558l.025.065C700.282,325.456,699.9,325.237,699.51,325.022Z" transform="translate(-699.51 -325.01)"/></g><g transform="translate(64.142 228.012)"><path class="l" d="M719.03,335.093l.043-.013.016.041h-.038Z" transform="translate(-700.407 -335.08)"/><path class="l" d="M416.95,680.064l.043-.014.018.043-.038,0Z" transform="translate(-416.95 -658.783)"/><path class="l" d="M525.98,687.237l.062-.027-.018.043Z" transform="translate(-519.258 -665.502)"/><path class="l" d="M564.986,690.1l.043.014-.022.027h-.038Z" transform="translate(-555.845 -668.213)"/><path class="l" d="M482.01,714.083l.043-.013.016.042h-.038Z" transform="translate(-477.999 -690.706)"/></g><g transform="translate(82.846 228.065)"><path class="f" d="M720.34,335.94l.086,0c.394.216.808.4,1.194.629.44.232.892.441,1.322.692.42.224.856.419,1.265.663l.009.051c-.594-.282-1.167-.61-1.755-.907C721.757,336.689,721.028,336.349,720.34,335.94Z" transform="translate(-720.34 -335.94)"/><path class="f" d="M799.721,503.068c.639-.324,1.264-.681,1.91-.988l.006.036c-.478.306-1.016.507-1.5.806-1.2.606-2.385,1.256-3.586,1.869l-.073-.015C797.553,504.192,798.642,503.64,799.721,503.068Z" transform="translate(-791.786 -491.838)"/></g><g transform="translate(54.239 228.131)"><path class="i" d="M257.673,337.02l.08,0c-.4.241-.821.432-1.225.66a.421.421,0,0,1-.17.064l-.038-.015C256.755,337.471,257.227,337.267,257.673,337.02Z" transform="translate(-256.32 -337.02)"/></g><g transform="translate(52.964 228.856)"><path class="i" d="M236.9,348.77l0,.03a4.315,4.315,0,0,1-.587.329,4.548,4.548,0,0,1-.673.326l.011-.038C236.058,349.185,236.479,348.981,236.9,348.77Z" transform="translate(-235.64 -348.77)"/></g><g transform="translate(50.361 229.546)"><path class="m" d="M195.934,359.97l.073.021c-.7.375-1.409.737-2.111,1.108a3.413,3.413,0,0,1-.486.238l.076-.084C194.3,360.821,195.118,360.4,195.934,359.97Z" transform="translate(-193.41 -359.97)"/></g><g transform="translate(86.745 230.103)"><path class="e" d="M783.59,369.022l.068-.012c1.23.637,2.454,1.287,3.682,1.926l-.021.043c-.471-.217-.919-.483-1.385-.711C785.156,369.846,784.359,369.46,783.59,369.022Z" transform="translate(-783.59 -369.01)"/></g><g transform="translate(43.658 230.96)"><path class="e" d="M91.2,382.917l.085-.007a1.023,1.023,0,0,1-.207.135c-2.132,1.1-4.25,2.235-6.387,3.328l.013-.052c.472-.281.977-.5,1.46-.766.338-.205.7-.36,1.048-.552.2-.138.436-.228.652-.346C88.977,384.08,90.084,383.491,91.2,382.917Z" transform="translate(-84.69 -382.91)"/></g><g transform="translate(90.519 232.073)"><path class="e" d="M844.81,400.98l.038-.02c.848.418,1.674.877,2.517,1.3l0,.061c-.46-.214-.9-.472-1.351-.7C845.615,401.411,845.2,401.216,844.81,400.98Z" transform="translate(-844.81 -400.96)"/></g><g transform="translate(93.085 233.431)"><path class="j" d="M886.43,423l.081-.011c.39.221.808.391,1.187.629l0,.051Q887.057,423.353,886.43,423Z" transform="translate(-886.43 -422.99)"/></g><g transform="translate(50.744 234.108)"><path class="j" d="M907.73,433.991l.061-.021c.835.429,1.66.882,2.5,1.3l.017.068C909.438,434.909,908.581,434.453,907.73,433.991Z" transform="translate(-864.076 -433.97)"/><path class="j" d="M199.63,542.88c.287.124.555.287.834.427,1.055.56,2.124,1.1,3.171,1.669l-.081.007c-.795-.4-1.573-.834-2.37-1.232-.5-.3-1.037-.517-1.533-.815Z" transform="translate(-199.63 -536.166)"/></g><g transform="translate(97 235.472)"><path class="d" d="M949.94,456.106l.045-.016.017.043Z" transform="translate(-949.94 -456.09)"/></g><g transform="translate(56.216 235.524)"><path class="n" d="M922.476,456.93a.993.993,0,0,1,.42.192c0,.03,0,.091,0,.121-.7.348-1.375.726-2.07,1.078-.081.026-.15.124-.242.081.744-.436,1.538-.787,2.279-1.226C922.751,457.074,922.589,457.04,922.476,456.93Z" transform="translate(-881.615 -456.93)"/><path class="n" d="M288.39,613l.077-.012c.438.234.883.455,1.319.69l.015.057C289.321,613.514,288.853,613.261,288.39,613Z" transform="translate(-288.39 -603.369)"/></g><g transform="translate(41.216 235.848)"><path class="k" d="M45.07,462.19l.063.029-.045.015Z" transform="translate(-45.07 -462.19)"/></g><g transform="translate(41.301 235.887)"><path class="f" d="M46.45,462.83c.447.2.876.445,1.308.679l-.08.011c-.395-.218-.811-.4-1.2-.629Z" transform="translate(-46.45 -462.83)"/></g><g transform="translate(42.61 236.567)"><path class="e" d="M67.69,473.86c.328.144.636.33.957.489.58.322,1.19.592,1.755.94l-.086,0c-.391-.214-.8-.392-1.182-.623-.475-.247-.957-.479-1.423-.742Z" transform="translate(-67.69 -473.86)"/></g><g transform="translate(94.119 237.008)"><path class="o" d="M903.2,481.567a10.081,10.081,0,0,1,1.053-.557v.057c-.314.173-.639.325-.955.493Z" transform="translate(-903.2 -481.01)"/></g><g transform="translate(83.509 237.575)"><path class="h" d="M902.042,490.2h.036l-.015.043-.042-.012Z" transform="translate(-891.484 -490.2)"/><path class="h" d="M731.125,603.09l.043.012-.022.028h-.036Z" transform="translate(-731.11 -596.13)"/></g><g transform="translate(92.737 237.617)"><path class="p" d="M880.78,491.55c.415-.241.844-.47,1.281-.67-.03.082-.12.107-.184.152-.349.181-.7.359-1.051.534Z" transform="translate(-880.78 -490.88)"/></g><g transform="translate(45.343 238.007)"><path class="q" d="M112.01,497.21l.059.027-.043.015Z" transform="translate(-112.01 -497.21)"/></g><g transform="translate(45.429 238.046)"><path class="h" d="M113.41,497.84c.284.11.54.277.813.409.592.318,1.2.612,1.782.946l-.073.009c-.342-.189-.7-.345-1.035-.546-.483-.258-.982-.485-1.454-.76Z" transform="translate(-113.41 -497.84)"/></g><g transform="translate(43.099 238.485)"><path class="r" d="M75.942,504.97a.683.683,0,0,1,.406.194,2,2,0,0,1-.338-.142c-.023,1.681.015,3.364-.018,5.045a1.034,1.034,0,0,1-.381.089,1.017,1.017,0,0,1,.332-.111Q75.943,507.507,75.942,504.97Z" transform="translate(-75.61 -504.97)"/></g><g transform="translate(43.866 238.673)"><path class="s" d="M88.06,508.035l.044-.015.019.041-.04,0Z" transform="translate(-88.06 -508.02)"/></g><g transform="translate(43.983 238.734)"><path class="t" d="M89.95,509.017,90,509.01l.012.047Z" transform="translate(-89.95 -509.01)"/></g><g transform="translate(44.105 238.798)"><path class="d" d="M91.93,510.056l.046-.006.012.046Z" transform="translate(-91.93 -510.05)"/></g><g transform="translate(44.228 238.863)"><path class="k" d="M93.93,511.106l.044-.006.01.045Z" transform="translate(-93.93 -511.1)"/></g><g transform="translate(44.305 238.919)"><path class="u" d="M95.18,512a1.253,1.253,0,0,1,.481.249q0,2.193,0,4.386a2.817,2.817,0,0,1,1.443.785,5.354,5.354,0,0,1-.439-.314,3.4,3.4,0,0,0-1.059-.441c-.017-1.468,0-2.938-.007-4.407C95.469,512.157,95.305,512.111,95.18,512Z" transform="translate(-95.18 -512)"/></g><g transform="translate(48.038 239.408)"><path class="o" d="M155.73,519.93c.438.216.877.435,1.3.687l-.092,0c-.392-.218-.808-.393-1.191-.628Z" transform="translate(-155.73 -519.93)"/></g><g transform="translate(86.237 241.009)"><path class="e" d="M775.36,546.579c.422-.24.852-.468,1.289-.679l0,.063c-.4.2-.805.412-1.207.618Z" transform="translate(-775.36 -545.9)"/></g><g transform="translate(83.651 241.692)"><path class="o" d="M733.4,558.33c.854-.461,1.714-.918,2.583-1.35-.031.108-.169.13-.251.192-.689.334-1.35.716-2.037,1.054C733.6,558.264,733.513,558.363,733.4,558.33Z" transform="translate(-733.4 -556.98)"/></g><g transform="translate(82.357 243.042)"><path class="f" d="M712.41,579.557c.424-.24.856-.464,1.293-.677l-.009.064c-.4.21-.8.41-1.2.62Z" transform="translate(-712.41 -578.88)"/></g><g transform="translate(52.738 243.359)"><path class="v" d="M231.973,584.018a1.61,1.61,0,0,1,.74.319l.012.05c-.24-.094-.456-.24-.691-.343q-.008,5.2,0,10.392a3.911,3.911,0,0,0,2.081,3.406c.437.223.9.391,1.348.591-.114.049-.214-.04-.315-.077a6.007,6.007,0,0,1-1.745-.927,1.634,1.634,0,0,1-.485-.482,3.941,3.941,0,0,1-.884-1.89c.022-.234-.082-.45-.064-.683C231.972,590.922,231.966,587.47,231.973,584.018Z" transform="translate(-231.966 -584.018)"/></g><g transform="translate(84.789 243.357)"><path class="b" d="M751.877,584.5a6.031,6.031,0,0,1,1.023-.5,9.417,9.417,0,0,1-1.03.555Z" transform="translate(-751.87 -584)"/></g><g transform="translate(84.14 243.346)"><path class="h" d="M743.033,583.82l.072.018q.006,5.174,0,10.348a3.957,3.957,0,0,1-1.68,3.249l-.088.016a4.685,4.685,0,0,0,.95-.927,3.838,3.838,0,0,0,.755-2.4C743.038,590.691,743.061,587.255,743.033,583.82Z" transform="translate(-741.34 -583.82)"/></g><g transform="translate(42.821 243.668)"><path class="w" d="M71.107,589.157c-.007-.1.179-.139.258-.121C71.338,589.138,71.195,589.146,71.107,589.157Z" transform="translate(-71.107 -589.032)"/></g><g transform="translate(53.517 243.727)"><path class="f" d="M244.6,590l.072-.014c.806.412,1.6.845,2.41,1.255.059.067.221.064.21.171C246.39,590.956,245.488,590.491,244.6,590Z" transform="translate(-244.6 -589.99)"/><path class="f" d="M311.44,625.067l.081-.007c1.227.628,2.44,1.284,3.667,1.912l.02.063c-.253-.1-.482-.247-.726-.364C313.47,626.133,312.444,625.62,311.44,625.067Z" transform="translate(-307.319 -622.898)"/></g><g transform="translate(81.066 243.721)"><path class="h" d="M691.47,590.576c.42-.24.848-.472,1.287-.676l-.023.055c-.383.236-.8.409-1.189.63Z" transform="translate(-691.47 -589.9)"/></g><g transform="translate(42.701 243.794)"><path class="h" d="M69.169,591.08l.043,0-.052.044Z" transform="translate(-69.16 -591.08)"/></g><g transform="translate(41.822 243.851)"><path class="n" d="M55.063,592.432a2.091,2.091,0,0,1,.685-.432,6.1,6.1,0,0,0-.848.654A.457.457,0,0,1,55.063,592.432Z" transform="translate(-54.9 -592)"/></g><g transform="translate(83.591 243.912)"><path class="j" d="M733.533,593l.072.011c-.382.221-.773.432-1.175.613l.022-.065C732.811,593.37,733.175,593.191,733.533,593Z" transform="translate(-732.43 -593)"/></g><g transform="translate(46.259 244.346)"><path class="x" d="M126.87,600.05c.1-.029.147.01.129.117A.177.177,0,0,1,126.87,600.05Z" transform="translate(-126.87 -600.04)"/></g><g transform="translate(74.721 244.403)"><path class="o" d="M630.45,602.923c1.244-.665,2.494-1.324,3.751-1.963l-.007.049c-.471.285-.986.493-1.456.78-.747.366-1.469.776-2.211,1.149Z" transform="translate(-627.868 -600.96)"/><path class="o" d="M588.56,634.3c.844-.468,1.706-.908,2.565-1.348l.012.058c-.473.251-.955.486-1.43.733-.345.215-.721.375-1.077.57Z" transform="translate(-588.56 -630.978)"/></g><g transform="translate(46.397 244.526)"><path class="y" d="M129.11,602.95c.1,0,.229.166.237.268A.325.325,0,0,1,129.11,602.95Z" transform="translate(-129.11 -602.95)"/></g><g transform="translate(40.963 244.564)"><path class="q" d="M41.549,603.8c.059-.084.115-.189.216-.223a3.144,3.144,0,0,0-.74,2.123,3.092,3.092,0,0,0,.128.893c-.115,0-.042-.15-.095-.212A3.13,3.13,0,0,1,41.549,603.8Z" transform="translate(-40.963 -603.58)"/></g><g transform="translate(82.309 244.583)"><path class="f" d="M712.554,603.974c.086-.034.159-.121.263-.1-.376.236-.779.43-1.176.628.014-.089.113-.106.174-.151C712.058,604.222,712.308,604.1,712.554,603.974Z" transform="translate(-711.64 -603.873)"/></g><g transform="translate(46.635 244.816)"><path class="z" d="M132.977,607.673l.04-.013.073.16A.131.131,0,0,1,132.977,607.673Z" transform="translate(-132.977 -607.66)"/></g><g transform="translate(46.756 244.99)"><path class="o" d="M134.94,610.49a.742.742,0,0,1,.26.5C135.094,610.836,135.03,610.656,134.94,610.49Z" transform="translate(-134.94 -610.49)"/></g><g transform="translate(81.134 245.206)"><path class="n" d="M693.672,613.99l.083.009c-.378.221-.769.419-1.16.613l-.014-.059C692.947,614.37,693.312,614.185,693.672,613.99Z" transform="translate(-692.58 -613.99)"/></g><g transform="translate(47.01 245.523)"><path class="u" d="M139.05,619.12l.049.009.01.109Z" transform="translate(-139.05 -619.12)"/></g><g transform="translate(47.069 245.707)"><path class="aa" d="M140.01,622.11l.047,0,0,.12C140.049,622.2,140.023,622.141,140.01,622.11Z" transform="translate(-140.01 -622.11)"/></g><g transform="translate(60.061 245.696)"><path class="g" d="M350.76,621.93c.867.437,1.727.89,2.582,1.351l-.084.01c-.831-.432-1.661-.864-2.486-1.306Z" transform="translate(-350.76 -621.93)"/></g><g transform="translate(78.423 245.821)"><path class="i" d="M648.61,625.326c.885-.441,1.752-.915,2.632-1.366l.076.016c-.895.476-1.79.951-2.693,1.409Z" transform="translate(-648.61 -623.96)"/></g><g transform="translate(47.064 245.859)"><path class="e" d="M139.991,624.58c.1.065.053.2.084.3a2.708,2.708,0,0,1-.052,1.2c-.042.064.012.21-.093.213A3.722,3.722,0,0,0,139.991,624.58Z" transform="translate(-139.93 -624.58)"/></g><g transform="translate(77.137 247.238)"><path class="o" d="M627.754,647.582c.38-.24.8-.409,1.192-.632l.076.017c-.423.23-.846.462-1.281.668Z" transform="translate(-627.74 -646.95)"/></g><g transform="translate(41.131 247.606)"><path class="ab" d="M43.727,652.92l.053.12-.08-.069Z" transform="translate(-43.7 -652.92)"/></g><g transform="translate(46.941 247.594)"><path class="ac" d="M137.94,652.987c0-.094.018-.224.117-.267C138.081,652.8,138.032,652.989,137.94,652.987Z" transform="translate(-137.94 -652.72)"/></g><g transform="translate(70.942 247.734)"><path class="o" d="M527.876,656.627c1.047-.536,2.078-1.1,3.131-1.627l-.011.05c-.454.275-.951.476-1.4.753-.757.373-1.492.787-2.246,1.166l-.1.006A6.267,6.267,0,0,1,527.876,656.627Z" transform="translate(-527.25 -655)"/></g><g transform="translate(41.21 247.754)"><path class="v" d="M44.97,655.32c.092.16.165.33.253.493A.64.64,0,0,1,44.97,655.32Z" transform="translate(-44.97 -655.32)"/></g><g transform="translate(64.06 247.788)"><path class="ad" d="M415.62,655.87c.4.2.8.4,1.183.628-.1.018-.182-.058-.27-.1-.3-.158-.609-.3-.9-.475Z" transform="translate(-415.62 -655.87)"/></g><g transform="translate(61.434 247.861)"><path class="ae" d="M373.02,657.064l.044-.014.017.042-.038,0Z" transform="translate(-373.02 -657.05)"/></g><g transform="translate(46.902 247.923)"><path class="w" d="M137.3,658.069l.036-.019.009.046-.043.015Z" transform="translate(-137.3 -658.05)"/></g><g transform="translate(65.526 247.919)"><path class="k" d="M570.077,658l.073.009c-.358.213-.734.392-1.1.591-.894.454-1.768.948-2.671,1.382.012-.1.121-.111.189-.153C567.747,659.234,568.9,658.6,570.077,658Z" transform="translate(-558.552 -658)"/><path class="k" d="M439.41,692l.08-.008c.779.4,1.547.821,2.332,1.211.067.042.176.054.187.152a1.817,1.817,0,0,1-.279-.128C440.958,692.812,440.173,692.426,439.41,692Z" transform="translate(-439.41 -689.895)"/></g><g transform="translate(46.837 248.044)"><path class="u" d="M136.25,660.079l.037-.059.009.045Z" transform="translate(-136.25 -660.02)"/></g><g transform="translate(45.987 248.125)"><path class="af" d="M122.964,661.791c.133-.136.209-.313.338-.451a2.413,2.413,0,0,1-.771.946l-.072.015C122.625,662.127,122.813,661.977,122.964,661.791Z" transform="translate(-122.46 -661.34)"/></g><g transform="translate(41.469 248.255)"><path class="w" d="M49.18,663.45a4.523,4.523,0,0,0,1.139,1.087,2.561,2.561,0,0,1-.929-.732C49.319,663.688,49.194,663.592,49.18,663.45Z" transform="translate(-49.18 -663.45)"/></g><g transform="translate(65.26 248.427)"><path class="k" d="M435.09,666.231h.036l.023.026-.042.015Z" transform="translate(-435.09 -666.23)"/></g><g transform="translate(62.819 248.599)"><path class="p" d="M395.5,669.04l.084-.01c.4.213.8.406,1.2.618l.01.063C396.353,669.507,395.926,669.273,395.5,669.04Z" transform="translate(-395.5 -669.03)"/></g><g transform="translate(45.611 249.094)"><path class="ag" d="M116.36,677.287a1.706,1.706,0,0,1,.365-.237A.513.513,0,0,1,116.36,677.287Z" transform="translate(-116.36 -677.05)"/></g><g transform="translate(66.675 249.165)"><path class="d" d="M458.04,678.2l.06.028-.044.015Z" transform="translate(-458.04 -678.2)"/></g><g transform="translate(42.642 249.331)"><path class="ah" d="M68.2,680.912c.08-.041.181.11.068.134Z" transform="translate(-68.2 -680.905)"/></g><g transform="translate(45.461 249.334)"><path class="ai" d="M113.93,681.023l.136-.073-.072.118a1.778,1.778,0,0,1,.126.427A1.5,1.5,0,0,1,113.93,681.023Z" transform="translate(-113.93 -680.95)"/></g><g transform="translate(64.231 249.333)"><path class="j" d="M418.39,680.938c.127,0,.224.092.336.137.311.17.641.3.938.5l.021.055A13.988,13.988,0,0,1,418.39,680.938Z" transform="translate(-418.39 -680.938)"/></g><g transform="translate(42.631 249.53)"><path class="af" d="M68.029,684.13l.05-.01-.059.124C68.022,684.216,68.027,684.159,68.029,684.13Z" transform="translate(-68.02 -684.12)"/></g><g transform="translate(42.498 249.712)"><path class="ab" d="M65.876,687.4c-.027-.09.036-.306.127-.319C66,687.189,65.979,687.336,65.876,687.4Z" transform="translate(-65.87 -687.08)"/></g><g transform="translate(68.066 249.758)"><path class="j" d="M482.046,688.511c.446-.221.873-.48,1.327-.681l-.022.068c-.4.216-.817.412-1.22.628-.1.058-.2.143-.321.113-.4-.213-.806-.414-1.21-.62l.012-.062c.4.189.78.4,1.169.607C481.872,688.621,481.967,688.552,482.046,688.511Z" transform="translate(-480.6 -687.83)"/></g><g transform="translate(45.648 249.904)"><path class="n" d="M116.97,690.19l.05,0,0,.117Z" transform="translate(-116.97 -690.19)"/></g><g transform="translate(42.444 250.087)"><path class="af" d="M65,693.167l.049-.007-.061.121C64.993,693.253,65,693.2,65,693.167Z" transform="translate(-64.99 -693.16)"/></g><g transform="translate(45.706 250.056)"><path class="l" d="M117.91,692.65l.043.009a6.39,6.39,0,0,1,.263,1.042C118.1,693.355,117.992,693,117.91,692.65Z" transform="translate(-117.91 -692.65)"/></g><g transform="translate(42.396 250.268)"><path class="d" d="M64.211,696.106l.049-.006-.05.124C64.21,696.194,64.211,696.135,64.211,696.106Z" transform="translate(-64.21 -696.1)"/></g><g transform="translate(42.201 250.419)"><path class="d" d="M61.2,698.572l.041-.022a4.632,4.632,0,0,1-.186.684A2.391,2.391,0,0,1,61.2,698.572Z" transform="translate(-61.053 -698.55)"/></g><g transform="translate(41.894 251.104)"><path class="ag" d="M56.334,709.656l.046-.005c-.067.4-.2.787-.263,1.19l-.047.112A9.777,9.777,0,0,1,56.334,709.656Z" transform="translate(-56.07 -709.65)"/></g><g transform="translate(46.011 251.107)"><path class="af" d="M122.86,709.7c.113.062.067.284.143.4l-.018.091A2.066,2.066,0,0,1,122.86,709.7Z" transform="translate(-122.86 -709.7)"/></g><g transform="translate(69.482 251.247)"><path class="k" d="M503.605,712.6c.382-.237.8-.409,1.189-.631l.083.013c-.43.223-.85.481-1.3.662Z" transform="translate(-503.58 -711.97)"/></g><g transform="translate(68.235 251.428)"><path class="n" d="M483.35,714.913c.1-.011.174.062.259.1.274.143.551.28.824.427l.16-.018a.19.19,0,0,1-.257.033C484.011,715.268,483.656,715.129,483.35,714.913Z" transform="translate(-483.35 -714.912)"/></g><g transform="translate(41.454 251.601)"><path class="aa" d="M53.616,717.724l.041,0c.162.777.33,1.552.416,2.341.057.272.041.552.1.825-.015.391.074.777.065,1.168a20.858,20.858,0,0,1-.07,2.4c-1.72.014-3.441,0-5.161,0a21.326,21.326,0,0,1-.072-2.589,24.218,24.218,0,0,1,.4-3.357l.03.031a21.7,21.7,0,0,0-.376,3.45,11.85,11.85,0,0,0,0,1.6,3.289,3.289,0,0,0,.048.806c1.69,0,3.381,0,5.071,0a5.7,5.7,0,0,0,.062-1.17,7.033,7.033,0,0,0,0-.926,8.627,8.627,0,0,0-.057-1.23A22.177,22.177,0,0,0,53.616,717.724Z" transform="translate(-48.932 -717.72)"/></g><g transform="translate(83.854 256.98)"><path class="e" d="M736.7,805.141a.672.672,0,0,1,.279-.171C737.015,805.081,736.788,805.186,736.7,805.141Z" transform="translate(-736.7 -804.97)"/></g><g transform="translate(82.721 257.158)"><path class="i" d="M718.32,808.351c.375-.16.749-.326,1.122-.491l-.014.066c-.263.113-.52.241-.787.344C718.537,808.3,718.435,808.4,718.32,808.351Z" transform="translate(-718.32 -807.86)"/></g><g transform="translate(58.069 257.65)"><path class="aj" d="M331.978,818.395a35.421,35.421,0,0,0,11.113-2.555l.01.06a40.826,40.826,0,0,1-4.283,1.427,35.542,35.542,0,0,1-5.3.99c-.269.007-.532.084-.8.065a4.807,4.807,0,0,1-.926.063,7.169,7.169,0,0,1-1.228.058c-.781,0-1.562,0-2.341,0-.311,0-.616-.078-.927-.06a35.155,35.155,0,0,1-8.7-1.715l-.145-.028.023-.052a36.777,36.777,0,0,0,7.6,1.641c.817.073,1.638.16,2.462.154a18.151,18.151,0,0,0,1.973.023C330.989,818.408,331.487,818.474,331.978,818.395Z" transform="translate(-318.44 -815.84)"/></g><g transform="translate(56.233 257.774)"><path class="j" d="M288.66,817.85c.615.229,1.23.457,1.848.679-.125.047-.234-.046-.348-.076-.507-.159-.995-.369-1.5-.543Z" transform="translate(-288.66 -817.85)"/></g></g></svg>