<svg xmlns="http://www.w3.org/2000/svg" width="85.183" height="84.243" viewBox="0 0 85.183 84.243"><defs><style>.a{fill:#fbfbfb;}</style></defs><path class="a" d="M58.722,41.341c3.583-10.222,2.048-23.7-6.7-32.451A30.283,30.283,0,0,0,9.2,51.717C18.207,60.728,31,63.325,42.44,58.2l5.666,5.666.213.213,7.974-1.394-.035,8.339,8.287.016-1.039,8.226,4.122,4.122.02.02.307-.3c1.447,1.314.984.715,1.2.715l14.2.43a2.122,2.122,0,0,0,2.2-2.038L85,67.886c0-.219.638.285-.676-1.164l-.113.115-.012-.014ZM25.972,26.754a7.81,7.81,0,1,1,0-11.046A7.807,7.807,0,0,1,25.972,26.754Z" transform="translate(-0.371 0)"/></svg>