<svg xmlns="http://www.w3.org/2000/svg" width="33.588" height="32.173" viewBox="0 0 33.588 32.173"><defs><style>.a{fill:#fff;}</style></defs><g transform="translate(0 0)"><path class="a" d="M43.157,38.285V25.841c0-6.667-3.552-9.769-8.289-9.769a7.148,7.148,0,0,0-6.489,3.586V16.584h-7.2c.1,2.037,0,21.7,0,21.7h7.2V26.165a4.923,4.923,0,0,1,.238-1.758,3.941,3.941,0,0,1,3.693-2.638c2.606,0,3.648,1.99,3.648,4.907V38.29l7.2-.005ZM13.6,13.617a3.761,3.761,0,1,0,.047-7.5,3.76,3.76,0,1,0-.094,7.5Zm3.6,24.668v-21.7h-7.2v21.7Z" transform="translate(-9.569 -6.117)"/></g></svg>