<svg xmlns="http://www.w3.org/2000/svg" width="43.017" height="44.604" viewBox="0 0 43.017 44.604"><defs><style>.a{fill:#6b7477;stroke:#6b7477;}</style></defs><path class="a" d="M21.008,0a2.678,2.678,0,0,0-2.626,2.725H0v5.45H2.626V38.153A5.353,5.353,0,0,0,7.878,43.6h26.26a5.353,5.353,0,0,0,5.252-5.45V8.176h2.626V2.725H23.634A2.678,2.678,0,0,0,21.008,0ZM10.5,38.153H7.878V13.626H10.5Zm7.878,0H15.756V13.626h2.626Zm7.878,0H23.634V13.626H26.26Zm7.878,0H31.512V13.626h2.626Z" transform="translate(0.5 0.5)"/></svg>