<svg xmlns="http://www.w3.org/2000/svg" width="93.107" height="93.107" viewBox="0 0 93.107 93.107"><defs><style>.a{fill:#fff;}</style></defs><path class="a" d="M128.459,167.392a25.122,25.122,0,0,0-25.067-25.067A25.045,25.045,0,0,0,85.682,185.1a24.991,24.991,0,0,0,35.419,0A24.142,24.142,0,0,0,128.459,167.392Zm28.648,46.554a7.262,7.262,0,0,1-7.162,7.162,6.649,6.649,0,0,1-5.036-2.126l-19.192-19.136a38.316,38.316,0,0,1-22.326,6.938,38.707,38.707,0,0,1-15.3-3.105A38.576,38.576,0,0,1,67.105,182.7a39.26,39.26,0,0,1,0-30.607,38.576,38.576,0,0,1,20.983-20.983,39.26,39.26,0,0,1,30.607,0,38.576,38.576,0,0,1,20.983,20.983,38.707,38.707,0,0,1,3.105,15.3,38.316,38.316,0,0,1-6.938,22.326l19.192,19.192A6.855,6.855,0,0,1,157.107,213.945Z" transform="translate(-64 -128)"/></svg>