<svg xmlns="http://www.w3.org/2000/svg" width="49.408" height="35.292" viewBox="0 0 49.408 35.292"><defs><style>.a{fill:#6b7477;}</style></defs><path class="a" d="M49.408,258.647v30a1.648,1.648,0,0,1-1.075,1.627,1.918,1.918,0,0,1-.689.138,1.638,1.638,0,0,1-1.241-.524L35.292,278.774v4.577a7.954,7.954,0,0,1-7.941,7.941H7.941a7.648,7.648,0,0,1-5.611-2.33A7.648,7.648,0,0,1,0,283.351v-19.41a7.648,7.648,0,0,1,2.33-5.611A7.648,7.648,0,0,1,7.941,256h19.41a7.954,7.954,0,0,1,7.941,7.941v4.549L46.4,257.406a1.638,1.638,0,0,1,1.241-.524,1.917,1.917,0,0,1,.689.138A1.648,1.648,0,0,1,49.408,258.647Z" transform="translate(0 -256)"/></svg>