<svg xmlns="http://www.w3.org/2000/svg" width="54.57" height="46.369" viewBox="0 0 54.57 46.369"><defs><style>.a{fill:#6b7477;}.b{fill:none;stroke:#6b7477;stroke-linecap:round;stroke-linejoin:round;stroke-miterlimit:10;stroke-width:4px;}</style></defs><g transform="translate(0 2.812)"><path class="a" d="M14.5,25.5H5.438A5.438,5.438,0,0,1,0,20.064V16.438A5.438,5.438,0,0,1,5.438,11H14.5Z" transform="translate(0 2.128)"/><path class="a" d="M15,36,6.075,27.513V15.491L15,7Z" transform="translate(4.937 -1.123)"/><path class="b" d="M25.634,44.516A33.119,33.119,0,0,0,32.3,24.6,33.16,33.16,0,0,0,24.94,3.758" transform="translate(20.27 -3.758)"/><path class="b" d="M15.508,29.228A14.813,14.813,0,0,0,14.725,9.6" transform="translate(11.968 0.991)"/><path class="b" d="M20.719,36.9a25.215,25.215,0,0,0,4.7-14.66A25.227,25.227,0,0,0,20.025,6.658" transform="translate(16.275 -1.401)"/></g></svg>