<svg width="28" height="26" viewBox="0 0 28 26" fill="none" xmlns="http://www.w3.org/2000/svg">
<path fill-rule="evenodd" clip-rule="evenodd" d="M13.0208 0C16.2006 0 18.7876 2.587 18.7876 5.7668V6.9784C18.7876 7.5166 18.3508 7.9534 17.8126 7.9534C17.2744 7.9534 16.8376 7.5166 16.8376 6.9784V5.7668C16.8376 3.6608 15.1255 1.95 13.0208 1.95H6.68331C4.58121 1.95 2.87041 3.6608 2.87041 5.7668V20.2345C2.87041 22.3392 4.58121 24.05 6.68331 24.05H13.0351C15.1307 24.05 16.8376 22.3444 16.8376 20.2488V19.0229C16.8376 18.4847 17.2744 18.0479 17.8126 18.0479C18.3508 18.0479 18.7876 18.4847 18.7876 19.0229V20.2488C18.7876 23.4208 16.2058 26 13.0351 26H6.68331C3.50611 26 0.92041 23.4143 0.92041 20.2345V5.7668C0.92041 2.587 3.50611 0 6.68331 0H13.0208ZM23.5249 8.5202L27.3313 12.3097C27.3653 12.3434 27.3957 12.3784 27.4235 12.4155L27.3313 12.3097C27.3774 12.3551 27.4184 12.4047 27.4539 12.4576C27.4695 12.4816 27.4846 12.5064 27.4986 12.5319C27.51 12.5518 27.5204 12.5726 27.5301 12.5937C27.5383 12.6124 27.5462 12.631 27.5535 12.65C27.5633 12.6747 27.5719 12.7001 27.5794 12.7258C27.5851 12.7461 27.5903 12.7663 27.5948 12.7868C27.6006 12.8116 27.6052 12.8366 27.6088 12.8618C27.6109 12.8782 27.6128 12.8953 27.6144 12.9126C27.6174 12.9422 27.6186 12.9711 27.6186 13L27.612 13.0806L27.6093 13.1322C27.609 13.1344 27.6087 13.1367 27.6084 13.1389L27.6186 13C27.6186 13.0722 27.6107 13.1436 27.5951 13.2131C27.5903 13.2337 27.5851 13.2539 27.5792 13.2738C27.5719 13.2999 27.5633 13.3253 27.5537 13.3503C27.5462 13.369 27.5383 13.3876 27.5299 13.406C27.5204 13.4274 27.51 13.4482 27.4988 13.4686C27.4846 13.4936 27.4695 13.5184 27.4534 13.5424C27.4443 13.5567 27.4343 13.5707 27.4239 13.5845C27.3929 13.6253 27.3592 13.6636 27.3227 13.6991L23.5249 17.4811C23.3351 17.6709 23.0855 17.7658 22.8372 17.7658C22.5876 17.7658 22.3367 17.6709 22.1469 17.4785C21.7673 17.0963 21.7686 16.4801 22.1495 16.1005L24.2814 13.975H10.99C10.4518 13.975 10.015 13.5382 10.015 13C10.015 12.4618 10.4518 12.025 10.99 12.025H24.284L22.1495 9.9008C21.7686 9.5212 21.766 8.905 22.1469 8.5228C22.5265 8.1406 23.1427 8.1406 23.5249 8.5202Z" fill="#E55858"/>
</svg>
