<svg width="24" height="28" viewBox="0 0 24 28" fill="none" xmlns="http://www.w3.org/2000/svg">
<path fill-rule="evenodd" clip-rule="evenodd" d="M9.50323 24.7901C10.1753 25.5388 11.0382 25.9501 11.9335 25.9501H11.9348C12.8339 25.9501 13.7007 25.5388 14.3741 24.7888C14.7348 24.3905 15.3498 24.3581 15.7481 24.7175C16.1478 25.0769 16.1802 25.6932 15.8208 26.0915C14.7724 27.2554 13.3931 27.8964 11.9348 27.8964H11.9322C10.4777 27.8951 9.101 27.2541 8.05651 26.0902C7.6971 25.6919 7.72954 25.0756 8.12917 24.7175C8.5288 24.3568 9.14382 24.3892 9.50323 24.7901ZM11.9981 0C17.7655 0 21.6398 4.49196 21.6398 8.6868C21.6398 10.8446 22.1887 11.7593 22.7713 12.7298C23.3474 13.6874 24 14.7747 24 16.8299C23.5472 22.081 18.0652 22.5091 11.9981 22.5091C5.93093 22.5091 0.447674 22.081 1.71742e-05 16.913C-0.00385802 14.7747 0.648787 13.6874 1.22488 12.7298L1.42826 12.3875C1.929 11.5269 2.3563 10.5907 2.3563 8.6868C2.3563 4.49196 6.23066 0 11.9981 0ZM11.9981 1.94626C7.46329 1.94626 4.30256 5.49883 4.30256 8.6868C4.30256 11.3843 3.5539 12.6312 2.89217 13.7315C2.36149 14.6151 1.9424 15.3132 1.9424 16.8299C2.15908 19.277 3.77448 20.5629 11.9981 20.5629C20.1762 20.5629 21.8422 19.22 22.0576 16.7456C22.0537 15.3132 21.6346 14.6151 21.104 13.7315C20.4422 12.6312 19.6936 11.3843 19.6936 8.6868C19.6936 5.49883 16.5329 1.94626 11.9981 1.94626Z" fill="#805DBE"/>
</svg>
