<svg xmlns="http://www.w3.org/2000/svg" width="83.65" height="98.479" viewBox="0 0 83.65 98.479"><defs><style>.a{fill:#fff;}</style></defs><g transform="translate(-142.8 -77.4)"><path class="a" d="M299.6,101.462a24.062,24.062,0,1,1,24.062,24.062A24.092,24.092,0,0,1,299.6,101.462Z" transform="translate(-139.037)"/><path class="a" d="M226.45,558.483v18.035a3.616,3.616,0,0,1-3.614,3.614H146.414a3.616,3.616,0,0,1-3.614-3.614V558.483A25.179,25.179,0,0,1,167.961,533.3h.453l.4.227a32,32,0,0,0,31.629,0l.4-.227h.453a25.179,25.179,0,0,1,25.161,25.183Z" transform="translate(0 -404.253)"/></g></svg>